<svg version="1.2" xmlns="http://www.w3.org/2000/svg" viewBox="0 0 1000 1000" width="1000" height="1000">
	<title>4454067-ai</title>
	<defs>
		<clipPath clipPathUnits="userSpaceOnUse" id="cp1">
			<path d="m999.3 999.88h-1000v-1000h1000z"/>
		</clipPath>
		<clipPath clipPathUnits="userSpaceOnUse" id="cp2">
			<path d="m999.3 999.88h-1000v-1000h1000z"/>
		</clipPath>
	</defs>
	<style>
		tspan { white-space:pre } 
		.s0 { fill: #ffffff } 
		.s1 { fill: #e2b85a } 
		.s2 { fill: #f9e48a } 
		.s3 { fill: #ea9e46 } 
		.s4 { fill: #9b5618 } 
		.s5 { fill: #e6dcf4 } 
		.s6 { fill: #a793c6 } 
		.s7 { fill: #ede7f7 } 
		.s8 { fill: #a55819 } 
		.s9 { fill: #421a25 } 
	</style>
	<g id="BACKGROUND">
		<g id="&lt;Clip Group&gt;" clip-path="url(#cp1)">
			<g id="&lt;Group&gt;">
			</g>
		</g>
	</g>
	<g id="OBJECTS">
		<g id="&lt;Clip Group&gt;" clip-path="url(#cp2)">
			<g id="&lt;Group&gt;">
				<g id="&lt;Group&gt;">
					<path id="&lt;Path&gt;" class="s0" d="m355.9 1017.5l-2.9-64.7-1.8-65.7-1.3-46.3-2.3-42.7-3.6-28.2-5.2-30.9-8.3-34.1c0 0-6.7-24.6-7.7-43-0.9-18.4-1.9-23.4-1.9-23.4l2.1-40.5 6.4-41.8 8.3-40 12.2-37.4c0 0-3.8-16.5 2.4-25.9 6.3-9.5 26.1-16.7 28.6-17.5 2.4-0.8 21.3-1.3 21.3-1.3h2.3c0 0-2.3-15.3 0-25.6 2.3-10.2 6.6-29.8 15.1-40.4 8.6-10.5 24.3-19.7 33.4-18.1 9.2 1.7 24.3 9 24.3 9 0 0 0.6-25.8 9-34.9 8.3-9 25.4-11.7 40.1-11.2 14.6 0.5 26 4.9 30.3 6.7 4.3 1.8 6.7 12.2 6.7 12.2 0 0 7.9-9.8 20.5-10.1 12.5-0.3 33.5 0.5 45.8 7.8 12.3 7.3 17.9 18.6 17.9 18.6l7.5 13.2 6.7 43.7v34c0 0 4.5 2.6 7 16.6 2.4 14 4.4 55.9 4.4 55.9 0 0 0.9 24.8 0.8 45.6-0.1 20.9-9.3 49.6-19.4 64.4-10.1 14.8-33.7 52-33.7 52l-21.5 26.7-26.1 35.7-21.5 31c0 0-4.7 6.3-3.9 12.7 0.8 6.3 6.8 27.8 6.8 27.8l14.4 47 12 37.6 8 29.7 6.8 26.2 10.3 38.4 8 28.9z"/>
					<g id="&lt;Group&gt;">
						<path id="&lt;Path&gt;" class="s1" d="m322.9 648.1c0 0 53.8-28.6 68.1-27 14.3 1.7 22.1 0 24.9 4.9 2.9 4.9 3.5 32.1 3.5 32.1 0 0 1.3-12.9 11.9-26.4 10.6-13.5 36-43.2 36-43.2 0 0 1.2-11 10.8-20.9 9.7-9.9 15.4-10.3 15.7-6.9 0.2 3.5 0.2 3.5 0.2 3.5 0 0 12.9 7.9 19.8 15 6.9 7.2 17.3 13.8 33.2 10.1 15.9-3.7 31.5-31.7 31.5-31.7 0 0-3.4-16.5 1-31.7 4.5-15.2 9.3-28.4 9.3-28.4l-41.2-1.6-161.3 94.2-64.6 40.3z"/>
					</g>
					<g id="&lt;Group&gt;">
						<path id="&lt;Path&gt;" class="s2" d="m377.7 549.5c0 0 14 14.3 18.2 13.9 4.1-0.5 23-13.9 23-13.9 0 0 10.4-9.9 10.2-14.9-0.3-5.1-4.2-19.6-4.2-19.6 0 0-12.6-13.4-15.2-19.6-2.5-6.2-2.3-36.2-2.3-36.2 0 0 7.8 33 13.1 41.7 5.3 8.8 29.8 37.8 29.8 37.8 0 0 8.5 9 10.1 13.4 1.6 4.4 6 24.9-4.1 33.6-10.2 8.8-31.1 1.6-36.1 0-5-1.6-30.1-12.6-32.1-16.3-2.1-3.7-10.4-19.9-10.4-19.9z"/>
					</g>
					<path id="&lt;Path&gt;" class="s2" d="m417.2 495.9c0 0 22.6 17.9 29 19.1 6.4 1.2 50.1-7.4 53.8-10.5 3.7-3.2-16.4-28.9-19.3-37.6-3-8.7-2.8-36.2-2.8-36.2 0 0 1.3 14.4 11.9 34.7 10.7 20.3 24.8 38.9 24.8 38.9 0 0 6.7 5.7 11.9 6 5.2 0.2 15.3 1.8 15.3 1.8 0 0-23.3 34.5-41.8 39.8-18.5 5.3-31 5.2-42.6-4.7-11.7-9.9-38.9-45.9-40.2-51.3z"/>
					<path id="&lt;Path&gt;" class="s2" d="m549.7 383.3c0 0 15.8 12.3 24.9 14.1 9.1 1.7 34.7-2.9 39.2-7.1 4.6-4.2 15.7-40.7 21.8-43.8 6-3 15.4 6 15.4 6l7.3 30.1 2.4 15.1-29.1 20.7-2 6.6h-74.3c0 0-9-37.3-5.6-41.7z"/>
					<path id="&lt;Path&gt;" class="s2" d="m573.3 735.9l26.1-35.7 18.5-23-50.9 39.6c-27.7 21.6-61.9 33.4-97.1 33.4h-11.7c0 0 61.2 63.8 63.6 81.8 1.8 13.5 30.4 127 44.8 183.6l47.6-0.4-8-28.9-10.3-38.4-6.8-26.2-8-29.7-12-37.6-14.4-47c0 0-6-21.5-6.8-27.8-0.8-6.4 3.9-12.7 3.9-12.7z"/>
					<path id="&lt;Path&gt;" class="s2" d="m475.6 391.2c0 0 7.8 35.4 12 37.9 4.2 2.6 16.3 2.3 16.3 2.3 0 0-5.2 10.9 2.1 22.6 7.2 11.6 16.6 26.1 34.2 33.4 17.6 7.3 27.2 7 27.2 7 0 0-24.1 20.7-45.1 15.6-21-5.2-43.8-69.5-44.6-75-0.8-5.4-2.1-43.8-2.1-43.8z"/>
					<path id="&lt;Path&gt;" class="s2" d="m392 976.3c-8.6-6.2-25.9-51.3-41-94.5l0.2 5.3 1.8 65.7 2.9 64.7 94.3-0.9c-22.3-15.2-48.8-33.6-58.2-40.3z"/>
				</g>
				<g id="&lt;Group&gt;">
					<path id="&lt;Path&gt;" class="s3" d="m367.3 530l-78.5-24.4c0 0-2.4-4.4-10.6 3.8-8.1 8.1-2.7 19.7 0 21.6 2.8 1.9 6.7 3.4 6.7 3.4l99.8 29.9z"/>
					<path id="&lt;Path&gt;" class="s4" d="m366.9 528.6c0 0 1.7 11.9 0 12.4-1.6 0.5-39.1-8.7-39.1-8.7l41.2 15.7h-40.1l55.8 16.3z"/>
					<path id="&lt;Path&gt;" class="s4" d="m273.9 517.1c0 0 7.1-15.4 13.2-12.3 6.2 3.1 4.8 14.6 3.5 18.9-1.2 4.4-17.4 18.8-16.7-6.6z"/>
					<path id="&lt;Path&gt;" class="s3" d="m631.6 418.4c0.6-0.2 15.9-8.8 15.9-8.8l61.7-44.1c0 0 9.4-0.7 16.7 9.8 7.3 10.5-4.2 17.8-4.8 18.4-0.6 0.6-61.9 42.5-61.9 42.5l-14.8-8-12.8-4.2z"/>
					<path id="&lt;Path&gt;" class="s4" d="m685.9 381.7c0 0-36 33.5-36 34.9 0 1.5 25.3-10.3 25.3-10.3 0 0-18 14.8-16.8 16.8 1.2 2 18.3-5.7 23.3-7.3 4.9-1.5 18.9-7.8 18.9-7.8l-41.8 29c0 0-8.9-7.7-11.7-8.2-2.7-0.6-14.5-4.1-14.5-4.1l-1-6.3z"/>
					<path id="&lt;Path&gt;" class="s0" d=""/>
					<path id="&lt;Path&gt;" class="s5" d="m667.3 446.2l65.7-21.2c0 0 4.6-1 10.2 12 5.6 13-8 16.2-8 16.2l-63.5 20.2z"/>
					<path id="&lt;Path&gt;" class="s6" d="m669 463l57.4-14 1.8-12.9 5.3 16.8-62.5 22.3z"/>
					<path id="&lt;Path&gt;" class="s5" d="m384.7 564.3l-83 47.9c0 0-9 5.2-6.1 15.8 2.8 10.5 7.4 18.6 17 15.1 9.7-3.6 98.7-61.1 98.7-61.1 0 0-20.5-6.2-26.6-17.7z"/>
					<path id="&lt;Path&gt;" class="s6" d="m354.6 581.9l16.6-4.1c6.8-1.7 13.2 4.7 10.9 11.4q-0.3 0.7-0.6 1.2c-2.3 3.3-20.9 24.3-20.9 24.3l51-32.2c0 0-16.1-6.5-18.4-9.8-2.2-3.3-8.5-8.4-8.5-8.4z"/>
					<path id="&lt;Path&gt;" class="s6" d="m309.1 616.1c0 0 10.4 10 8.3 20.1-2 10.1-11.6 9-15.5 3.7-3.9-5.2-9.7-17.8-4.3-23.8 5.3-6 11.5 0 11.5 0z"/>
					<path id="&lt;Path&gt;" class="s7" d="m540.2 509.9l-4.2 5.9c0 0-4.9 1.4-6 6l-49.1-28.4c0 0-0.6-5.2-3.4-5.2-2.8 0-2.8 0-2.8 0 0 0-2.6-3.8-3.7-3.8-1.1 0-2.9-0.5-2.9-0.5 0 0-2.2-7.7-6.4-9-4.2-1.2-6.8-3.5-6.8-3.5 0 0-3-9.6-9.5-6.5-6.5 3-14.4 14-14.7 20.1-0.2 6.1-2.1 12.2 1.4 15 3.6 2.8 6.2 5.1 6.2 5.1l81.9 52.3 5.1-1c0 0 5.6-2 6.9-4 1.2-2 1.9-4.8 1.5-5.5-0.4-0.6-2.1-8.6-2.1-8.6l2.7-5 17.9 15.4c0 0 3.8 3.4 8.9 1.2 5-2.3 8.5-9.1 8.5-9.1l9.9-14.9 6.4-17.2 2.9-11.2-4.9-5.2-17.3 0.6c0 0-9.1 12.9-26.4 17z"/>
					<path id="&lt;Path&gt;" class="s6" d="m438 504.1c0 0 7.2 2.8 10.7 1.9 3.5-1 10.9-5.4 10.9-5.4l-2.6 6.5c0 0 4.6 1.3 6.8 0 2.1-1.4 6.5-14.5 6.5-14.5 0 0-0.2 13.2-0.6 15.1-0.4 1.8-5.1 4.1-5.1 4.1 0 0 46.6 32.6 49.2 33.4 2.6 0.8 11-2.1 11-2.1l8-11.8c0 0-2.1 7.6-1 10.8 1.1 3.1 1.9 8 1 10-1 2-6 3.8-6 3.8l-5.3 1.9-59.4-37.4z"/>
					<path id="&lt;Path&gt;" class="s6" d="m544.1 508.4c0 0 22.2-5.4 27.3-3.2 5.1 2.3 7.6 21.9 7.6 21.9l9.8-29.6-3-6.2-19.2 1.6c0 0-10.8 14.3-22.5 15.5z"/>
					<path id="&lt;Path&gt;" class="s8" d="m532.2 526.8c0 0 2.2-6.1 6.5-5.5 4.3 0.6 12.3 6.9 12.3 6.9 0 0 7 3.4 8.8 9.8 1.7 6.4-0.5 9.7-3.2 10-2.7 0.4-11.3-5.1-11.5-5.3-0.3-0.3-10.6-9.8-10.6-9.8 0 0-3.2-2.4-2.3-6.1z"/>
					<path id="&lt;Path&gt;" class="s8" d="m435.6 482.4c0 0 5.9-12.3 9.5-12.8 3.7-0.6 6.4 1.8 7.1 6.4 0.6 4.7-1.2 11.6-2.4 14.6-1.2 3.1-4.4 10.2-7.9 10.5-3.4 0.4-6.7-2.7-7.3-5.5-0.6-2.8-1.3-7.5 1-13.2z"/>
					<path id="&lt;Path&gt;" class="s3" d="m672 484.6l57.3-3.8c0 0 14-1.9 16.7 3.8 2.7 5.8 3.6 21.5-3.4 30.7 0 0 2.7 4.3-15.8 1.8-18.5-2.4-53.9-8.3-53.9-8.3z"/>
					<path id="&lt;Path&gt;" class="s4" d="m696.8 484.6c0 0-10.4 1.2-10.7 1.9-0.4 0.7 11.9 3.6 11.9 3.6 0 0-11.2 1.8-10.5 3.1 0.7 1.3 12.4 6 12.4 6 0 0-15.1 1.9-15.9 3.7-0.7 1.8 35.3 13.3 35.3 13.3l-46.4-7.4-1.5-24.9 27.5-1.3z"/>
					<path id="&lt;Path&gt;" class="s4" d="m747.2 490.2c0 0-1.9-10-8.9-8.7-6.9 1.3-11.9 14.8-10.5 21.6 1.4 6.8 4.1 16.2 9.1 15.3 5.1-1 8.4-7 8.4-7 0 0 4.7-8.4 1.9-21.2z"/>
					<path id="&lt;Path&gt;" class="s3" d="m467.6 591.5c0 0-0.7-8.8 6.5-19.2 7.1-10.5 16.1-15.4 19.1-13.7 3 1.7 2.3 6.9 2.3 6.9 0 0 4.8 0.6 5.5 2.6 0.6 1.9 3.7 8 3.7 8l33.9 43.6c0 0 4.3 13.7-8.3 21.6-12.5 7.9-20.1-0.8-21.9-3.6-1.8-2.7-25.3-34.8-25.3-34.8l-2.4-1.5h-1.8l-3.4-5.4c0 0-9.1 3.7-7.9-4.5z"/>
					<path id="&lt;Path&gt;" class="s4" d="m470.5 581.5c0 0-0.2 6.9 2.3 8 2.5 1.1 5.9-1.5 5.9-1.5 0 0 2.4-6.7 3.8-8.8 1.5-2.2 6.1-6.6 6.1-6.6 0 0-2.4 11.4-1.6 11.7 0.7 0.3 7.3-6.1 8.6-8 1.3-1.9 5.7-8.7 5.7-8.7l-3.7 12.6c0 0-6.5 14-6.2 15 0.3 1 4 2.6 5.6 1.7 1.5-0.8 6.5-12 6.5-12 0 0-3.4 22-3.5 22.4-0.1 0.4 9.2 19.2 10.5 19.7 1.4 0.5 9.7 0 9.7 0l-9.3 14.3-8.5-13-19.3-25.4c0 0-3.2-1-4-2.1-0.8-1.1-0.8-1.1-0.8-1.1l-5.1-3.4c0 0-5.2 1.4-5.4-1.7-0.2-3.1 0.1-10.9 2.7-13.1z"/>
					<path id="&lt;Path&gt;" class="s4" d="m512 639.6c0 0 5.8-12.2 12.3-16.6 6.6-4.3 13.6-4.2 15.8 0 2.1 4.3-6.8 16.5-12.4 18.9-5.6 2.4-14.1 2.2-15.7-2.3z"/>
				</g>
				<g id="&lt;Group&gt;">
					<path id="&lt;Path&gt;" class="s8" d="m521.6 564.9c0 0-2.1-1.6-4.3 0-2.1 1.6-1.7 3.3-0.6 3.3 1.1 0 5.4-0.9 4.9-3.3z"/>
					<path id="&lt;Path&gt;" class="s8" d="m532.1 563.2c0 0-0.6-0.7 1.3-3 2-2.3 4.6-6.1 5.8-3.8 1.3 2.4-6.4 11.8-7.1 6.8z"/>
					<path id="&lt;Path&gt;" class="s8" d="m544.8 555.5c-0.2-0.1-1.6-2.5-1.7-4.1 0-1.6 1.2-1.6 1.7-0.9 0.6 0.7 3 5.7 0 5z"/>
					<path id="&lt;Path&gt;" class="s8" d="m534.8 580.7c0 0 0.1-5.4 1.8-5.4 1.6 0 1.9 0 1.9 0 0 0 0.2 1.7 0 2.4-0.3 0.8-3.3 6.7-3.7 3z"/>
					<path id="&lt;Path&gt;" class="s8" d="m539.2 602.6c0 0 1.4-1.7 4.9-1.7 3.5 0 4.8 1.5 4.5 2.4-0.4 0.8-2.9 2.8-9.4-0.7z"/>
					<path id="&lt;Path&gt;" class="s8" d="m546.9 613.1c0 0 1.5-2 6.3 0.8 4.8 2.9 9.6 5 7.3 6.9-2.3 1.8-11.6-2.9-13.6-7.7z"/>
					<path id="&lt;Path&gt;" class="s8" d="m488.2 644.8c0 0-0.4-2.4 2.2-4.2 2.6-1.8 7.4-3.8 7.9-2.7 0.6 1.1-3.4 8.3-10.1 6.9z"/>
					<path id="&lt;Path&gt;" class="s8" d="m496.3 660c0 0 0-5.6 3-4.3 3 1.3 2.4 8.5 1.4 10.5-0.9 1.9-4.6 3.6-4.4-6.2z"/>
					<path id="&lt;Path&gt;" class="s8" d="m423.5 616.5c0 0-1.9-16.4 1.5-16.3 3.4 0.1 3.3 3.1 3.4 9.2 0.2 6.2-2.2 14.6-4.9 7.1z"/>
					<path id="&lt;Path&gt;" class="s8" d="m397 615.2c-0.2 0.1-2.5-0.5 0-4.8 2.6-4.2 8.5-9 10.5-6.1 2 2.9-5.8 10.6-10.5 10.9z"/>
					<path id="&lt;Path&gt;" class="s8" d="m392.8 641.9c0 0-2.3-1.8 2.1-5.1 4.4-3.2 9.5-5.2 10.3-3.1 0.7 2-1.6 6-12.4 8.2z"/>
					<path id="&lt;Path&gt;" class="s8" d="m383.1 731.5c0 0 8.5-12.9 7.8-15.1-0.7-2.2-5.2-0.3-5.6 0-0.4 0.2-10.3 17.4-2.2 15.1z"/>
					<path id="&lt;Path&gt;" class="s8" d="m452.3 689.7c0 0-0.9-5.6 8-2.3 8.9 3.3 12.3 12.7 11.5 14.6-0.7 1.9-0.7 1.9-0.7 1.9 0 0-3.3-0.5-5.6-3-2.3-2.4-14.2-7.7-13.2-11.2z"/>
					<path id="&lt;Path&gt;" class="s8" d="m330.5 357.5c0 0-6.3-4.7-7.4-2.1-1.1 2.6 6.6 7.3 8.3 7.9 1.6 0.7 5 1.3 3.7-0.9-1.3-2.2-4.6-4.9-4.6-4.9z"/>
					<path id="&lt;Path&gt;" class="s8" d="m375.4 382.8c0 0-1.9-0.2-1.9 2.3 0 2.5 1.6 7 3 5.2 1.3-1.9 1.7-7-1.1-7.5z"/>
					<path id="&lt;Path&gt;" class="s8" d="m389.1 345.2c0 0-8.2-0.8-8 2.4 0.2 3.2 7.2 2 9.7 2.6 2.4 0.7 5.7-2.7-1.7-5z"/>
					<path id="&lt;Path&gt;" class="s8" d="m397.3 335.1c0 0-1.7 0.3-1.9 2.4-0.2 2 3.8 5.8 4.6 4 0.9-1.8-1-6.1-2.7-6.4z"/>
					<path id="&lt;Path&gt;" class="s8" d="m417.4 317.1c0 0-3.4 0.5-2.1 4.7 1.3 4.2 5.2 16.4 8.1 11.4 2.9-5-3.3-15.6-6-16.1z"/>
					<path id="&lt;Path&gt;" class="s8" d="m244.1 429.1c0 0-0.5-4.1 5.2-1.2 5.6 2.9 12.1 6.6 11.7 8-0.4 1.4-2.7 2.3-6.5 0-3.8-2.3-10.5-4.7-10.4-6.8z"/>
					<path id="&lt;Path&gt;" class="s8" d="m294.6 426.9c0 0-3.4 1-5-3.3-1.6-4.2-0.4-6.5 2.5-5.1 2.9 1.4 3.4 7.5 2.5 8.4z"/>
					<path id="&lt;Path&gt;" class="s8" d="m310.9 481.3c0 0-5.1-2.7-7.1 0-2.1 2.7 5.7 5.9 6.5 6.3 0.7 0.4 9.1 5.2 7.4 0-1.7-5.2-6.8-6.3-6.8-6.3z"/>
					<path id="&lt;Path&gt;" class="s8" d="m326.4 472.9c0 0-1.9-0.4-1.1 2.2 0.7 2.6 3.7 8.4 5.5 6.5 1.7-2 0.1-7.4-4.4-8.7z"/>
					<path id="&lt;Path&gt;" class="s8" d="m196.4 579.5c0 0 2.1-5.1 7-4.7 4.9 0.4 7.1 1.8 11.8 1.6 4.8-0.3 9.4 3 8.3 4.1-1.1 1.1-7.3 1.3-7.6 1.3-0.3 0-8.5 0.8-10.4 0-1.9-0.8-6.1-1.1-6.8-1.1-0.7 0-3.2 0.4-2.3-1.2z"/>
					<path id="&lt;Path&gt;" class="s8" d="m228.1 560.3c0 0-2.9 1.5-2.7 2.9 0.2 1.5 3.8 5.6 5.2 4.9 1.4-0.7 2.2 0 1.7-1.9-0.5-1.9-2.1-5-4.2-5.9z"/>
					<path id="&lt;Path&gt;" class="s8" d="m286.1 745.9c0 0 8.6-5.1 10.3-7.5 1.7-2.4 0.7-5.8-1-5.5-1.8 0.4-8.4 7.2-8.8 8.2-0.5 1-3.9 5.3-0.5 4.8z"/>
					<path id="&lt;Path&gt;" class="s8" d="m277.6 725.4c0 0 1.1-3.2 7.5-4.1 6.3-1 13.2-1.9 12.2 1-1 3-16.1 5.4-17 4.7-1-0.8-3.1-0.8-2.7-1.6z"/>
					<path id="&lt;Path&gt;" class="s8" d="m306 708.7c0 0-1.6 0.7-1.7 1.7-0.1 1.1 5 3.6 5.9 3.2 0.9-0.3 1.3-4.4-4.2-4.9z"/>
					<path id="&lt;Path&gt;" class="s8" d="m239.7 652.1l9-3.1c0 0 3.6-1.3 1.5-3.5-2.1-2.2-11.8 1.6-12.6 3.3-0.8 1.8-2.3 3.2 2.1 3.3z"/>
					<path id="&lt;Path&gt;" class="s8" d="m211.1 778c0.3 0.3 9.5-1.9 9.8-2 0.4 0 7.3-0.8 6.1-3.9-1.1-3-12.3-0.5-12.6-0.4-0.4 0-7.4 3-3.3 6.3z"/>
					<path id="&lt;Path&gt;" class="s8" d="m606.9 820.8c0 0-1.5-3.9 6.5-3.4 8 0.5 11.6 4.7 9.9 6.2-1.8 1.4-12.2-0.4-12.5-0.4-0.4 0-3.8-0.1-3.9-2.4z"/>
					<path id="&lt;Path&gt;" class="s8" d="m635 689.2l0.3 0.4 7.1 11.4c0 0 0.2 1.7-0.7 2.3-0.9 0.6-3.4 0.1-6.3-4.4-2.9-4.6-8.3-11.2-0.4-9.7z"/>
					<path id="&lt;Path&gt;" class="s8" d="m646.5 690.7c0 0-3.5-2.9 3-4.6 6.4-1.8 10.6-0.8 9.5 1.4-1.2 2.2-9.4 4.2-9.4 4.2 0 0-2.2 0.5-3.1-1z"/>
					<path id="&lt;Path&gt;" class="s8" d="m672.1 633c0 0-6.1 4.2-7 2.8-0.9-1.5 3.8-6.6 7-7 3.1-0.3 8.8-0.6 9.8 0.6 1 1.3-0.2 3.1-1.4 3.2-1.2 0.1-6.1-0.3-8.4 0.4z"/>
					<path id="&lt;Path&gt;" class="s8" d="m715.6 648.1c0 0 0.3-2.7 3.6-4.2 3.4-1.5 7.6-1.4 6.7 0.8-1 2.2-10.5 6-10.3 3.4z"/>
					<path id="&lt;Path&gt;" class="s8" d="m709.9 541.6c0 0-5.3 5.5-6 3.6-0.6-1.9 0.4-3.4 1.9-4.8 1.5-1.5 5.4-1.8 4.1 1.2z"/>
					<path id="&lt;Path&gt;" class="s8" d="m755.8 598.5c0 0-4.1 4.3-5.3 3-1.3-1.3-1.2-2.2 0.8-4.6 2-2.3 5.1-4.1 6.2-3.2 1 0.9 2.3 1.4 1.1 2.3-1.1 0.9-2.8 2.5-2.8 2.5z"/>
					<path id="&lt;Path&gt;" class="s8" d="m769.2 461.3c0 0-6.3 7-6.9 3.8-0.7-3.1 3.3-6.2 5.1-5.8 1.7 0.4 1.8 2 1.8 2z"/>
					<path id="&lt;Path&gt;" class="s8" d="m789.1 462.3c-0.2 0.1-7.7 1.2-9.6 1.7-1.8 0.5-2.6-1.9-1.3-2.9 1.2-1.1 6.8-4.4 9-3.7 2.1 0.8 6.3 3.5 1.9 4.9z"/>
					<path id="&lt;Path&gt;" class="s8" d="m800.9 492.4c0 0-6-2.9-8.1-2.1-2.1 0.8-2.3 3.1 0.6 4.1 2.9 1 3 1 3 1 0 0 2.6 0.7 3.9 1.1 1.3 0.5 3.6 0.7 3.8-0.5 0.1-1.3-3.2-3.6-3.2-3.6z"/>
				</g>
				<g id="&lt;Group&gt;">
					<path id="&lt;Compound Path&gt;" fill-rule="evenodd" class="s9" d="m618.7 1041.7c0.3-0.9-0.1-1.7-0.4-2.5q-4-11.7-8-23.3c-11.3-32.6-25.8-106.8-36.2-139.7-5.2-16.2-10.4-32.3-15.6-48.5q-5.3-16.7-9.6-33.7-1.4-5.2-2.3-10.6c-0.5-2.8-0.4-5.7-0.4-8.5 0.1-1.5 0.5-2.9 1.1-4.2q0.9-2.2 2.1-4.2c2.1-3.9 4.5-7.7 7.1-11.3q3.7-5.2 7.4-10.3c6.9-9.4 13.8-18.9 20.8-28.2 7.9-10.5 15.7-20.9 23.6-31.3 9.9-13 19.6-26.1 28.6-39.7 8-12.2 15.4-24.7 21.8-37.8 1.3-2.5 2.4-5.2 3.5-7.8 1.2-3 2.4-6 3.6-9 1.1-3 2.1-6.1 2.7-9.3 2.6-12.6 3.7-25.3 3.9-38.2 0.1-5.8 0.1-11.7-0.1-17.5-0.2-6.5-0.7-12.9-1.1-19.4-0.1-1.5-0.2-3-0.2-4.5-0.2-5.6-0.5-11.3-1.1-16.9-0.7-7.6-1.1-15.3-2.1-22.9-0.4-2.9-0.5-5.9-1.2-8.8-1.9-7.9-6.1-14.1-13-18.4-6.2-4-13.1-6.5-20.4-7.8q-5.2-0.9-10.4-0.8c-4.9 0.1-9.7 0.3-14.6 0.5-0.6 0-1.2 0.1-1.8 0.1-8.1 0.4-16.2 0.7-24.3 1-9.5 0.4-19.1 0.8-28.7 0.9-6.5 0-13-0.3-19.5-0.6-5.8-0.2-11.6 0.2-17.4 0.6-1.6 0.1-3.2 0.4-4.8 0.8-1.3 0.2-2.6 0.8-3.7 1.6-1.5 1.1-2.5 2.4-2.9 4.2-0.4 1.7-0.5 3.4-0.3 5.2 0.5 4 1.6 7.8 3.2 11.5 3 7 7.4 13.2 12.5 18.8 5.7 6.2 12.4 10.6 20 13.9 7.2 3 14.9 4.6 22.7 5.2 1.4 0.1 2.9 0.2 4.3 0.3 2.5 0 5 0.1 7.5 0 10.8-0.4 21.5-1.9 32.1-4.4 4.7-1.2 9.4-2.2 14.2-3.2 1.5-0.3 3.2-0.3 4.8-0.5 0.3 0 0.8 0.4 0.7 0.7 0 0.2-0.1 0.4-0.2 0.6-0.2 0.2-0.4 0.4-0.6 0.5-0.5 0.3-1 0.6-1.6 0.9-1.6 0.6-3.2 1.3-4.9 1.8-8.4 2.7-16.9 5-25.6 6.6-1.1 0.3-2.2 0.4-3.3 0.6-0.2 0.1-0.4 0.3-0.4 0.5-0.1 0.2 0.1 0.5 0.2 0.6 1.9 1.6 4.3 2 6.5 2.4 1.7 0.3 3.3 0.5 4.9 0.7 4.7 0.3 9.5 0.1 14.2-0.3 4.3-0.4 8.7-0.9 13-1.3 1.7-0.1 3.4-0.6 5.1-1.1 0.1 0.6-0.4 0.8-0.7 1q-3 1.4-6.1 2.8c-4.3 1.9-8.8 2.8-13.4 3.3-4.9 0.5-9.9 0.5-14.9 0.1-2.3-0.3-4.5-0.9-6.8-1.5-0.5-0.1-1-0.2-1.6-0.3-0.3 0.7-0.5 1.2-0.7 1.8-2.2 7.5-4.7 15-6.6 22.6-1 3.7-1.9 7.5-2.4 11.3-0.6 4.7-0.9 9.4-0.7 14.1 0.3 9 1.7 17.9 3.6 26.6 0.9 4.4 2.2 8.7 4.2 12.7 0 0.2 0 0.4 0.1 0.7-5.2-7.3-8.5-15.3-10.5-23.8q-2.8-11.7-2.1-23.7c0.2-3.1 0.7-6.2 1-9.3 0-0.3 0-0.7-0.1-1.1 0 0-0.1-0.2-0.2-0.2-0.1 0-0.3 0-0.3 0.1-0.4 0.4-0.8 0.9-1.1 1.4q-2.3 3.9-4.5 7.8c-1.4 2.4-3.2 4.4-5 6.4-3.3 3.6-8 3.9-11.7 2.1-3.9-2-7.6-4.4-10.7-7.6-1.2-1.1-3.1-3-4.4-4.1-1.3-0.9-2.4-2-3.6-3 0-0.1-0.5 0.1-0.5 0.2-0.3 1-0.5 2-0.7 2.9-0.4 1.6-0.5 3.2 0.2 4.8 0.4 0.7 0.6 1.6 0.8 2.4 0.6 2.3 0.1 4.4-0.7 6.5-0.6 1.3-1.5 2.3-2.8 3-1.1 0.5-2.3 1.1-3.5 1.5-1.5 0.5-3 1-4.4 2-1 0.6-2.1 0.6-3.2 0.2q-1.3-0.5-2.4-1.1-4.4-2.5-8.7-5.1c-1-0.6-1.9-1.2-2.7-1.7-0.7-0.1-1.1 0.2-1.5 0.5-1.1 0.8-2.4 1.2-3.7 1.6-1.9 0.6-3.9 1.1-5.8 1.6-1.3 0.3-2.6 0.6-4 0.9 0.5 0.6 1.2 0.4 1.7 0.5 1.9 0.5 3.1 1.8 3.2 3.7 0.1 1.1 0.1 2.2 0.1 3.3 0 0.5 0.4 0.9 0.9 1 0.8 0 1.5 0.1 2.3 0.2 1.6 0.2 3 1.4 3.4 3 0.2 1.1 0.3 2.2 0.5 3.3 0.1 0.5 0.4 1.1 0.7 1.4 5.7 6.1 10.8 12.6 16 19.1 6 7.6 11.8 15.4 17.7 23.1q1.6 2.1 3 4.3c1.8 2.8 2.2 6.3 1.1 9.5-0.5 1.5-1.1 2.9-1.9 4.1-3.6 5.6-8.3 9.9-14 13.2-2.7 1.6-5.6 1.9-8.7 1.3-1.4-0.2-2.6-0.8-3.7-1.6-3.1-2.2-5.8-4.6-7.8-7.9-2.8-4.7-5.8-9.3-8.8-13.9-3.3-4.8-6.8-9.5-10.6-14-0.9-1.1-2.5-2.9-3.5-4-0.9-0.9-1.8-1.9-3.1-2.4-1-0.4-1.6-1.1-2.2-2q-0.6-1.1-1.3-2.1c-0.3-0.5-0.9-0.7-1.4-0.7-0.7 0.1-1.4 0.2-2.2 0.3-0.8 0.1-1.7 0.1-2.6 0-1.9-0.2-3.2-1.3-3.6-3.2-0.4-1.6-0.5-3.3-0.5-4.9q0.1-2.1 0.4-4.2c1-5.3 3.1-10.2 5.9-14.6 2.2-3.4 4.9-6.3 7.8-9 2.2-2.2 4.9-3.9 7.7-5.2 0.5-0.2 0.9-0.4 0.8-1.1-1.4-0.2-2.9 0.1-4.4 0.3-2.5 0.4-5 0.5-7.6 0.5-4.1 0.1-8.1-1.1-11.7-3.1-0.5-0.2-1.1-0.4-1.6-0.7-0.1 0-0.2 0-0.3 0.1-0.1 0-0.2 0.2-0.2 0.3q0.1 0.5 0.2 1.1c1.4 6.1 1.8 12.3 1.2 18.5-0.2 1.8-0.6 3.5-1.1 5.1-2.3 7.5-8.5 12.2-18.8 13.8-3 0.4-6 0.5-9-0.1q-1.7-0.2-3.3-0.8c-1.2-0.5-2.4-0.7-3.6-1-5.3-1.4-10.5-3.2-15.6-5.2-0.3-0.1-0.7-0.2-0.9-0.3-1-0.1-1.6 0.5-2.2 0.9-6.9 4.3-13.9 8.7-20.8 13.2-19.9 12.9-40.2 25.2-60.6 37.3-1.4 0.8-2.8 1.6-4.1 2.4-0.6 0.7-0.5 1.5-0.5 2.2 0.1 3 0.3 6 0.5 9 0.2 3.8 0.6 7.7 0.9 11.5 0.6 6.3 1.6 12.6 2.7 18.8 2.1 11.4 4.9 22.6 7.5 33.9 2.6 11.4 5.2 22.8 7.6 34.2 1.5 7.1 2.6 14.2 3.8 21.3 0.5 3.2 0.7 6.4 1 9.7q0.4 3.7 0.8 7.4c1 7.8 1.7 15.6 2.2 23.4 0.7 9.7 1.2 19.4 1.6 29q0.9 20 1.5 40c0.7 22.5 1.2 45 1.6 67.5 0.3 17.8 4.1 77.1 4.2 94.9h-4.5c0-2.8 0.1-5.5 0-8.2-0.3-18.8-4.4-79.1-4.8-97.9q-0.2-14.3-0.6-28.7c-0.4-11.7-0.8-23.4-1.1-35.1-0.2-5.4-0.2-10.8-1.3-16.1-0.7-3.4-0.9-6.8-0.5-10.3 0.7-5.1 0.3-10.2 0.1-15.4q-0.4-11.5-1.4-23c-0.3-4.3-0.6-8.7-0.9-13.1-0.2-1.7-0.3-3.5-0.6-5.2-0.4-1.7-0.5-3.5-0.6-5.2-0.3-7.6-1.6-15.1-2.9-22.5-2.9-16.3-6.8-32.4-10.5-48.5-2.4-10.1-4.8-20.1-6.7-30.2-1.1-5.8-2-11.5-2.7-17.4-0.7-6.8-1.3-13.6-1.5-20.4-0.1-0.4-0.1-0.8-0.1-1.1-0.1-0.5-0.7-0.9-1.1-0.7-0.8 0.4-1.5 0.8-2.3 1.2-5.2 2.5-10.1 1.7-14.7-2.4-0.9-0.9-1.8-1.9-2.5-3-2.8-4.2-4.5-8.8-4.8-13.9-0.2-3 0.5-5.8 2.1-8.6 1.7-2.9 4.3-5.2 7.2-7 5.1-2.9 10.2-6 15.3-9 0.8-0.5 1.8-0.9 2.4-1.8 0.5-3.6 1-7.3 1.6-11 0.8-5.7 1.7-11.3 2.6-17 1.1-6.2 2.2-12.5 3.3-18.7 0.1-0.4 0.2-0.8 0.1-1.1-0.1-0.3-0.4-0.7-0.7-0.8-1.1-0.5-2.3-0.8-3.5-1.1-13.9-4.2-27.8-8.6-41.5-13.5q-1.8-0.6-3.5-1.3c-5-2.1-7.3-6-7.6-11.4-0.2-2.9 0.5-5.8 1.8-8.5q1.8-3.5 4.3-6.7c1.9-2.4 4.3-4.1 7.4-4.7 1.2-0.2 2.4-0.2 3.6 0.2 6.1 2.2 12.4 3.8 18.5 5.8 8.7 2.8 17.3 5.5 26 8.2 0.3 0.1 0.7 0.3 1 0.4 1 0.3 1.5 0 1.7-0.9q0.9-3.4 1.7-6.8c2.6-10.8 5.9-21.4 9.6-31.8 0.6-1.5 0.7-2.9 0.4-4.3-0.9-4.1-0.9-8.2-0.6-12.3 0.3-5.1 2.5-9.8 6.2-13.3q2.6-2.4 5.6-4.2c8.8-5.5 18.4-9.3 28.6-11.3 4.5-0.8 9.1-1.2 13.7-0.7 0.2-0.2 0.5-0.4 0.5-0.6 0.1-0.5 0.1-1 0.1-1.5-0.3-6.4 0.3-12.9 1.1-19.3 1.1-8.3 3-16.4 5.5-24.3 1.3-4.2 2.9-8.2 4.8-12.1 2.1-4.1 5.1-7.7 8.6-10.7 5.1-4.4 10.6-8.3 16.6-11.4 2.1-1.1 4.3-2.1 6.6-2.9 4.8-1.6 12.6-1.2 17.3 0.3 4.2 1.3 8.2 3.1 12 5.5q0.6 0.4 1.2 0.7c0.3 0.2 0.8-0.2 0.9-0.5q0-0.5 0.1-1.1c0.5-3.9 0.9-7.9 1.3-11.8 0.5-4 1.1-7.9 2.3-11.8 0.3-1.2 0.8-2.3 1.3-3.4 0.7-1.3 1.4-2.7 2.6-3.7 2-1.8 3.8-3.9 6.2-5.3 2.6-1.5 5.2-2.8 8.1-3.7 3.4-1.1 6.8-1.7 10.3-2.2 5.9-0.8 11.9-1.1 17.8-0.9 5.2 0.1 10.4 0.1 15.6 1 4.3 0.7 8.5 1.9 12.3 4.1 4.1 2.4 7.5 5.4 9.8 9.5 0.2 0.4 0.5 0.9 0.8 1.3 0.1 0.1 0.9 0.2 1 0.1 0.4-0.3 0.9-0.6 1.2-0.9 2.3-2.3 5-3.7 8.1-4.4 2.1-0.5 4.1-1.1 6.2-1.4 5.7-0.8 11.4-0.9 17.1-0.3 6.8 0.7 13.6 1.6 20.3 2.8 2.6 0.5 5.2 1.2 7.6 2.2q5.5 2.4 10 6.3 3.8 3.3 7.1 7.2c2.8 3.3 5.4 6.9 7.9 10.6 2.5 3.7 4.4 7.9 5.5 12.3 1.6 6.4 2.8 12.9 3.9 19.4 0.7 4.5 1.6 8.9 2.4 13.3 0.1 0.7 0.8 1 1.4 0.6q0.5-0.3 0.9-0.6 1.2-0.9 2.4-1.7 14.6-10.5 29.1-20.9 3.8-2.8 7.7-5.3c1.1-0.8 2.4-1.4 3.6-2 1.4-0.8 2.9-0.8 4.3-0.5q1.7 0.4 3.2 1.1c5.6 2.3 10 6.1 12.8 11.5 2.2 4.3 2 8.7 0.2 13-0.7 1.7-1.9 3.1-3.3 4.2q-2.2 1.6-4.4 3.2-5.6 3.9-11.3 7.9-21.5 14.8-43 29.7c-1.3 0.9-2.5 1.9-4.2 2.4 1.9 2.7 3.6 5.2 5.2 7.6 0.5-0.1 0.9-0.1 1.2-0.3 14.4-5.7 29-10.5 43.7-15.3 5.5-1.7 11.1-3.3 16.7-5q1.3-0.4 2.6-0.7c1.3-0.2 2.6 0 3.7 0.7 2.7 1.5 5 3.6 6.6 6.2 1.7 2.8 3 5.7 3.8 8.9q0.6 2.3 0.7 4.8c0.1 4-1.8 6.9-4.8 9.1-0.6 0.4-1.6 0.9-2.3 1.2-8.4 3-16.9 6-25.4 8.9-12 4.1-24 8-36 12-0.5 0.1-2 0.7-2.5 0.9-0.7 0.3-1.4 0.5-2 1.3 0.2 1.7 0.2 3.5 0.7 5.4 0.8 0 1.6-0.1 2.3-0.1 4.3-0.5 8.7-1 13-1.3q7.8-0.6 15.7-1c7.7-0.4 15.5-0.9 23.3-0.6 1.4 0 2.8 0 4.2-0.1 2.7-0.1 5.5 0.2 8.2 0.7 2.4 0.3 4.2 1.6 5.4 3.6 1 1.7 1.6 3.6 2.1 5.6 0.8 3.7 1 7.5 0.7 11.3-0.3 3.7-0.9 7.3-2.2 10.8-0.5 1.2-1.1 2.5-1.7 3.7-1.7 3.3-4.5 4.9-8 5.8-0.5 0.1-1.5 0.1-2.1 0.1-6.9-1-13.7-2-20.6-3.2q-7.7-1.3-15.5-2.5-9.6-1.5-19.2-2.9c-1.1-0.1-2.2-0.2-3.2-0.3-0.5 0.4-0.5 0.9-0.5 1.4q0.2 4.9 0.4 9.9 0.8 16.1-0.1 32.2c-0.3 3.9-0.5 7.7-1 11.6-0.8 6.9-1.7 13.8-3.6 20.5-1 3.8-2.5 7.3-3.9 10.9q-3.1 8-6.9 15.6-0.7 1.4-1.4 2.7c-3.6 6.2-7 12.4-10.6 18.5-7.1 12.1-15 23.8-23.3 35.1q-9.2 12.5-18.6 24.8c-9 11.7-17.8 23.7-26.5 35.6-4.9 6.6-9.8 13.2-14.7 19.8-3.9 5.2-7.7 10.4-11.1 15.9-1.2 2.1-2.4 4.3-3.7 6.4-0.9 1.4-1.2 2.8-1 4.3 0.3 2.5 0.6 5 1 7.4 0.9 5 2.4 9.9 3.7 14.8 3.6 12.8 7.7 25.5 11.7 38.2 8.5 26.1 16.8 52.3 25.3 78.4 13.5 46.5 19.6 80.1 25.7 98.2 3 8.9 2.5 15.6 5.5 24.6 0.4 1 0.6 2.1 0.9 3.2zm-78.7-527.1q0.8 0.5 1.5 1.1c0.4 0.3 0.5 0.9 0.3 1.3-0.3 0.5-0.8 0.6-1.3 0.6-0.6 0-1.2-0.2-1.8-0.3-0.9-0.1-1.7-0.2-2.6-0.1-2.1 0.3-3.6 1.5-4.3 3.6 0 0.1 0 0.2 0 0.3q0.2 0.4 0.4 0.7c0 0 0.2 0 0.3 0q0.7-0.3 1.3-0.7c2.7-1.8 5.6-1.9 8.5-0.6 1.2 0.6 2.5 1.2 3.6 1.9 3.3 2.3 6.6 4.6 9.7 7 3.2 2.3 5.3 5.5 6.7 9.2 0.6 1.8 0.8 3.6 0.5 5.5q-0.3 2.1-1.9 3.5c-0.6 0.5-1.2 0.9-1.8 1.3 0.6 0.5 1.2 0.4 1.8 0.1 1.5-0.6 2.7-1.7 3.7-3 1.3-1.9 2.5-3.7 3.7-5.6 3.8-6.3 7.4-12.6 10.8-19.1 0.7-1.3 1.1-2.5 1.5-3.8 1.7-5.5 3.4-11 5.1-16.4 0.2-0.8 0.6-1.6 0.5-2.7-0.6-0.7-1.4-1.6-2.1-2.4-0.5-0.6-1.2-0.9-2-0.8q-3.3 0.2-6.7 0.3c-1.8 0.1-3.7 0.1-5.4 0.1-0.3 0.1-0.4 0.2-0.5 0.3-7.6 6.1-16 10.8-25 14.5-2 0.8-2.9 1.6-4.5 4.2zm-102.7-13.1q0-0.1 0-0.1-0.1-0.1-0.2-0.1 0.1 0.1 0.1 0.1 0.1 0.1 0.1 0.1zm-2.7-3.1c-1.2-1.7-1.9-3.5-1.8-5.5 0.2-1.8 0.4-3.5 0.6-5.2q0.5-4.3 2.7-8 1.8-2.9 3.5-5.8c0.2-0.3 0.4-0.6 0.5-1 0.1-0.1-0.1-0.4-0.2-0.6-0.1 0.1-0.2 0.1-0.3 0.2-5.9 5.6-8.7 15.9-7.5 23.6q0 0.4 0.1 0.7c0.5 1.4 1.1 2.5 2.4 3.2q1.3 0.7 2.5 1.3c-0.6-1.1-1.7-1.8-2.5-2.9zm7 6.9q6.5 4 13.1 7.9c14.2 8.5 28.2 17.4 41.7 26.9 3.9 2.7 7.8 5.4 11.7 8q4.8 3.3 9.8 6.1 1.5 0.8 3 1.5 0.7 0.3 1.5 0 2.4-1 4.8-2 0.9-0.3 1.7-0.7c1.5-0.7 2.3-1.9 2.5-3.5 0.2-1.2 0.1-2.4-0.2-3.6q-0.3-0.9-0.7-1.8c-0.7-1.8-0.8-3.6-0.4-5.5 0.9-3.9 0.8-7.9 0.4-11.9q-0.1-0.7-0.3-1.4c-0.3-1.1-0.9-2-1.9-2.6-4.4-2.5-8.6-5-12.9-7.6-10.8-6.4-21.7-12.7-32.9-18.2q-0.7-0.3-1.4-0.7c-1-0.5-1.6-1.5-2.1-2.5q-0.2-0.7-0.4-1.4c-0.2-1.9-1.2-2.9-3.2-2.8-1.2 0-2.1-0.7-2.8-1.7 0-0.1-0.1-0.2-0.2-0.3-0.7-1.6-1.9-2.5-3.7-2.4-1.3 0-2.1-0.8-2.6-1.9-0.5-0.9-0.9-1.8-1.3-2.7q-1.1-2.4-3.5-3.7c-0.9-0.5-1.7-1-2.7-1.3-1.9-0.8-3.3-2.1-4.4-3.9q-0.7-1.1-1.5-2.2c-1-1.3-2.2-2.3-3.7-2.9-1.6-0.6-2.8-0.5-4.2 1.3-0.1 0.1-0.1 0.2-0.1 0.4 0 0 0.1 0.2 0.2 0.2 0.6 0 1.2 0 1.9 0.1 2.1 0.2 3.7 1.2 4.8 3.1 0.4 0.8 0.9 1.8 1.1 2.7 1.2 5.2 1.7 10.3-0.9 15.3-0.8 1.3-1.3 2.7-1.9 4-0.7 1.2-1.4 2.4-2.1 3.6q-1.2 1.9-3.1 3.2c-1.5 1-3.1 1.5-4.9 1.3-0.8-0.1-1.7-0.2-2.5-0.2 1.1 1.7 2.6 2.8 4.3 3.8zm94.6 7.3q-1.1 0-2.2 0c-2.2 0-4.5 0.1-6.7 0-6.3-0.2-11.5-2.9-15.4-7.9-0.5-0.7-1-1.4-1.6-2.1-1.9-2.1-3.6-4.4-5.3-6.7q-5.8-8.3-10.7-17.1c-5.7-10.2-10.8-20.7-14.9-31.6-2-5.4-3.3-11-4-16.7q-1.5-12.6-1.6-25.3c0-8.8 0.3-17.6 0.8-26.5q0.2-3.1 0.4-6.3 0.4-5.2 0.5-10.4c-1.8-1.8-3.8-3.4-6-4.5q-5-2.8-10.6-4.5-6.7-2-13.2 0.5c-1.8 0.7-3.6 1.5-5.4 2.4-5.8 3-11 6.8-15.9 11q-4.6 4-7.3 9.4-2.1 4.2-3.5 8.6c-3.3 9.8-5.6 19.9-6.8 30.1-0.2 2.1-0.4 4.3-0.3 6.4 0.4 7.8 0.6 15.6 1.6 23.4 0.6 4.6 1.1 9.2 1.8 13.7 1.2 7.7 3 15.4 5.1 22.9 1 3.5 2 6.9 3.4 10.2q3.6 8.3 8.8 15.6c7.5 10.6 15.6 20.7 24.5 30.1 2.6 2.8 5.4 5.4 8.3 8.1 1.9 1.7 4 3.3 6.2 4.7 1.8 1.2 3.7 1.9 5.8 2.5 1.7 0.4 3.4 0.5 5.2 0.5 3.3 0 6.7-0.4 10-0.9 4.9-0.6 9.8-1.7 14.5-3.2 0-0.6-0.3-0.9-0.7-1.2-9.2-6.4-18.3-12.8-27.8-18.8q-14.7-9.2-29.4-18.4c-3-1.8-6-3.5-8.6-5.9-0.8-0.9-2-1.4-3.1-2.1-2.2-1.5-3.4-3.5-3.8-6.1-0.2-1.1-0.3-2.2-0.3-3.4 0.1-4.6 0.7-9.1 2.5-13.5 0.7-1.8 1.6-3.6 2.7-5.2 2.2-3.1 4.8-5.8 7.6-8.2 1-0.8 2-1.5 3.1-2.2 2.4-1.5 4.9-1.5 7.4-0.1 1.8 0.9 3.3 2.2 4.4 3.9q0.9 1.2 1.6 2.5 0.8 1.4 2.1 2 1.6 0.8 3.1 1.5 3.1 1.6 4.6 4.7c0.3 0.8 0.6 1.6 0.9 2.4q0.3 0.9 0.6 1.8c0.5 0 0.9 0.2 1.2 0.2 1.8-0.1 3.1 0.7 4 2.2 0.5 0.7 0.6 1.7 1.7 2.1 0.6 0 1.3 0 2.1 0 1.2-0.1 2.1 0.6 2.8 1.5q0.7 1.1 1 2.4c0.1 0.6 0.3 1.2 0.4 1.7 3.3 1.7 6.6 3.3 9.8 5 3.2 1.6 6.4 3.3 9.5 5q4.9 2.7 9.7 5.6c3.2 1.8 6.2 3.7 9.3 5.5 3.1 1.8 6 3.9 9.2 5.6 0.3-0.3 0.5-0.5 0.6-0.7 1.2-1.9 2.9-3.3 5-4.2 0.6-0.2 1-0.8 1.4-1.3 0.1-0.1-0.1-0.4-0.1-0.7zm25.6-178.6c-0.3-1.2-0.6-2.1-0.9-3-1.2-3.6-3.2-6.5-6.1-8.8-3.9-3.3-8.5-5.2-13.5-6q-4.6-0.7-9.2-0.8-7.9-0.3-15.7 0c-4.5 0.2-8.9 0.8-13.3 1.7-3.9 0.8-7.7 2.2-11.1 4.3-1.2 0.7-2.3 1.4-3.2 2.5-2 2.3-3.6 4.7-4.5 7.7-0.7 2.1-1 4.3-1.3 6.5-1.2 8.8-2.1 17.6-2.5 26.4-0.1 1.1-0.2 2.2-0.2 3.4-0.4 5.5-0.9 11.1-1.1 16.7-0.4 13.5-0.7 26.9 0.6 40.3 0.7 7.8 2.1 15.5 5 22.9 2.7 7.1 5.9 13.9 9.4 20.7 5.1 10.2 11.2 19.9 17.8 29.3 1.5 2.1 3.3 4 5.1 5.9 2.3 2.4 5.2 3.9 8.5 4.3 3.8 0.5 7.7 0.4 11.5-0.3 3.6-0.6 7-1.8 10.2-3.4 4.6-2.3 9-4.8 13.4-7.5 0.3-0.2 0.6-0.4 0.9-0.6 0.1-0.2 0.1-0.5 0.2-0.7 0 0-0.2-0.2-0.3-0.2-0.8-0.2-1.7-0.4-2.5-0.5-7.9-0.7-15.4-2.9-22.6-6.2-5.3-2.4-10.3-5.4-14.7-9.4-5.2-4.7-9.7-9.9-13.5-15.9-2.2-3.4-4-7.1-5.5-10.9q-1.9-4.6-2.6-9.4c-0.5-3.3-0.4-6.7 0.6-9.9-0.8-0.6-1.5-0.5-2.3-0.5-2.9 0-5.6-0.6-8.4-1.4q-1-0.4-2-1c-0.2-0.2-0.2-0.6-0.4-1.1 2.4-0.2 4.6-0.3 6.8-0.5 1.5-0.2 3-0.2 4.5 0 1.5 0.2 3 0.2 4.6 0.3 2.9-2.8 6.6-3.9 10.4-4.3 4.5-0.5 9-0.9 13.5-0.9 4.8 0.1 9.7 0.2 14.5 0.4 3.5 0.3 7 0.2 10.4 0.3 0.4 0 0.8 0 1.1-0.1 0.2-0.1 0.4-0.4 0.4-0.6-0.5-1.9-1.2-3.8-1.6-5.7q-1.2-5.9-2.2-11.8-0.7-4.4-1.3-8.8-0.5-3.9-0.8-7.8c-0.2-3.8 0.3-7.5 0.8-11.2 0.9-5.9 2.3-11.7 4-17.4 2.5-9.1 5.7-18 9.1-27zm-105.3 214.3c-2.3-2.3-4.5-4.4-6.6-6.5q-8.3-8.6-15.7-18-7.2-9.3-13.8-19c-2.4-3.5-4.4-7.2-6-11.1-3.4-8.6-5.9-17.4-7.8-26.4-1.9-9.1-3.1-18.2-3.8-27.4-0.1-1.1-0.1-2.2-0.7-3.3-2.3-0.5-4.6-0.5-7-0.4-4.8 0.2-9.6 1.2-14.2 2.5-7 2-13.5 5-19.7 8.8-2.1 1.2-3.9 2.6-5.6 4.3-1.8 2-3.1 4.2-3.6 6.8-0.3 1.6-0.6 3.2-0.6 4.8 0 2.8 0 5.5 0.6 8.2 0.5 2.1 0.8 4.2 1.3 6.2 2.8 11.3 6.2 22.5 10.1 33.5 5.2 15.2 11.6 29.9 19.3 44 1.7 3.1 3.4 6.1 5.4 8.9 2.5 3.5 5.5 6.5 9.2 8.6 1.8 1.1 3.7 2.1 5.5 3.2 2.8 1.9 5.9 3.2 9.1 4.3 0.7 0.3 1.4 0.4 2.1 0.8 2 1 4.1 1.7 6.2 2.4 3.5 1.3 7.1 2.3 10.6 3.6 3.1 1.2 6.2 1.5 9.5 1.4q5.3 0 10.1-2.2c5.5-2.5 8.4-6.8 9.2-12.7 0-0.4 0-0.7 0.1-1.1 0.5-3.6 0.2-7.2 0-10.8q-0.2-3.9-1.4-7.7-0.8-2.8-1.8-5.7zm187.3-172.7q0.8 1.9 0.7 3.9c-0.4 4.8-1.2 9.4-2.5 14q-2.3 7.7-4.9 15.2c-0.2 0.6-0.4 1.2-0.5 1.8 0 0.1 0.1 0.3 0.2 0.3 0 0.1 0.2 0.1 0.2 0.1 0.4-0.3 0.8-0.6 1.1-1 1.8-2.4 3.6-4.8 5.3-7.2q1.2-1.5 2.3-2.9c0.1-0.1 0.3 0 0.4 0 0.1 0 0.2 0.1 0.2 0.2 0.3 2.3 0.3 4.5-1.1 6.5q-0.3 0.3-0.3 0.6c-0.1 0.2-0.1 0.5 0 0.7 0 0.3 0.5 0.3 0.9 0q6.2-4.5 12.4-9c0.7-0.5 1-1.1 0.8-1.9-0.3-1.2-0.6-2.4-0.8-3.6q-1.5-8.3-2.9-16.6-1.2-7.3-3.1-14.6c-0.8-3.3-2.2-6.5-4.1-9.5-3.1-4.9-6.6-9.6-10.6-13.9q-2.5-2.6-5.2-4.9c-3.4-2.9-7.4-5-11.8-6.1q-2.3-0.6-4.7-1c-4.4-0.7-8.9-1.5-13.3-2-3.2-0.5-6.4-0.7-9.7-0.9-4-0.2-7.9 0.3-11.9 0.8-1.9 0.3-3.9 0.8-5.8 1.3-3.7 1-6.3 3.3-7.9 6.8-0.6 1.2-1.2 2.5-1.7 3.8-1.3 3.6-2.7 7.2-4 10.8-3.4 9.7-6.4 19.6-8.2 29.8-0.6 3.9-1.2 7.9-1 11.9 0.1 2.2 0.4 4.4 0.6 6.7 0.5 6.3 1.6 12.5 2.8 18.8 0.6 3 1.2 6 1.9 9.1 0.1 0.5 0.4 0.8 1 0.8q0.8 0 1.5 0c10.2-0.3 20.4-0.6 30.6-1 5.1-0.2 10.2-0.4 15.3-0.7 7.4-0.5 14.9-0.8 22.4-0.4 0.4 0 0.9-0.1 1.3-0.2 0.4-1 0.2-1.9 0.1-2.7q-0.5-2.9-1.1-5.9c-0.9-4.5-1.9-9-2.8-13.5q-0.3-1.4-0.5-2.9c-0.1-0.4 0-0.7 0-1.1 0.1-0.2 0.3-0.4 0.4-0.5 0.3-0.3 0.9-0.2 1.1 0.1 0.4 0.6 0.9 1.1 1.3 1.8 0.6 1.3 1.2 2.7 1.7 4.1 0.6 2 1.1 4.1 1.6 6.1 0.2 0.6 0.4 1 1 1.1 0.3-0.6 0.6-1.3 0.8-2 1.7-5.1 3.3-10.1 4.8-15.3 1.1-3.5 2-7.2 3-10.8 0.3-1.4 0.7-2.8 1.5-4.2 0.2-0.4 0.6-0.7 1.2-0.8zm-259.6 191.7c-0.4 0.2-0.7 0.3-1 0.5-5.5 3.5-11 6.7-16.7 9.9q-29 16.5-58 32.9c-0.9 0.5-1.7 1-2.7 1.6 9.3 5.2 13.5 13.1 13.5 23.5 0.4 0 0.8 0.1 1.1-0.1q4.2-2.4 8.3-4.9c13.7-8.1 27.4-16.2 40.8-24.7 11.7-7.4 23.2-15 35-22.1 0.3-0.2 0.6-0.5 0.9-0.7 0.2-0.2 0.1-0.8-0.2-0.9q-0.8-0.5-1.7-0.9c-1.6-0.8-3.3-1.7-4.9-2.5-5.3-2.8-10-6.1-13.6-10.9-0.2-0.3-0.5-0.5-0.8-0.7zm325.3-199.6c-0.4 0.1-0.7 0-0.9 0.2-1.4 0.9-3 1.7-4.4 2.7-4.9 3.6-9.8 7.3-14.7 10.9q-26.9 20-54.4 39.4c-0.3 0.2-0.5 0.5-0.7 0.7-0.3 0.3-0.1 1.2 0.3 1.3 0.7 0.3 1.4 0.5 2.1 0.7q11.1 2.4 20.4 8.8c0.5 0.3 1 0.6 1.5 0.9 1.4-0.4 2.5-1.4 3.6-2.1 19.1-13.3 38.1-26.6 57.6-39.3 1-0.7 2-1.5 2.9-2.3 0.4-0.3 0.8-0.7 1-1.1 1.9-3.7 2.3-7.4 0.2-11.1-0.6-0.9-1.2-1.9-1.9-2.7-2.1-2.4-4.4-4.4-7.2-5.9-0.4-0.3-0.8-0.5-1.3-0.4 0 0.8 0.8 1.2 1.2 1.7 1.5 1.6 2.9 3.4 4 5.4 0.6 1.2 1.2 2.4 1.4 3.8 0 0.1-0.1 0.3-0.2 0.3-0.2 0-0.5 0-0.6-0.1-0.7-1.1-1.5-2.2-2.2-3.4-2-3.3-4.6-6.1-7.7-8.4zm-330.3 191.3c-0.2-0.5-0.3-0.9-0.6-1.4-4.4-8.2-8.5-16.5-12.1-25.1-0.1-0.2-0.2-0.5-0.3-0.7-0.3-0.6-0.7-1-1.4-1.1-3.8-0.7-7.5-1.8-11.2-2.9-13.3-3.8-26.5-8.3-39.7-12.5-6.2-2-12.3-4.1-18.4-6.1-0.5-0.2-1-0.2-1.5-0.4-0.3 0-0.8 0.3-0.8 0.6q0.1 0.4 0.1 0.7c1.7 7.8-0.3 14.5-5.8 20.2-0.4 0.4-0.7 0.7-1.1 1-0.4 0.4-0.3 1.1 0.2 1.2q1.4 0.5 2.8 1c8.2 2.5 16.4 5 24.6 7.5 14.7 4.2 29.3 8.4 44 12.6 6.6 1.9 13.2 3.7 19.7 5.5 0.4 0.1 0.7 0.1 1.1 0.1 0.1 0 0.2-0.1 0.4-0.2zm130.7 77.5c0.2-0.1 0.4-0.1 0.4-0.2 0.2-0.3 0.5-0.6 0.6-0.9 1.2-3.1 3.2-5.6 5.5-7.9 2.7-2.6 5.7-4.8 9-6.5 2.4-1.3 4.8-2.3 7.4-2.6 0.4-0.1 0.7-0.2 1.1-0.3 0.3-0.1 0.6-0.6 0.4-0.9-0.3-0.4-0.5-0.8-0.8-1.2-7.7-10.3-15.4-20.4-23.6-30.3q-3.5-4.4-7.1-8.7c-0.4-0.5-0.8-1.2-1.7-1.4-0.5 0.3-0.5 0.8-0.7 1.2-0.6 2.1-1.7 3.8-3 5.5q-0.2 0.4-0.5 0.6c-0.1 0.1-0.3 0.1-0.3 0.1-0.2-0.1-0.4-0.3-0.4-0.5 0.1-2.1 1-4.1 1.5-6.1 0.5-1.9 1.1-3.8 1.6-5.7 0.2-0.5 0.2-1 0.2-1.5 0-0.6-0.6-1.2-1.1-1.3-1.1-0.2-2.2-0.3-3.3-0.6-1.5-0.3-2.4-1.4-2.5-2.9-0.2-1.1-0.1-2.2-0.2-3.3 0-0.5-0.6-0.9-1.1-0.7-0.2 0-0.5 0-0.7 0.1-2.9 1.2-5.7 2.7-7.9 4.8-5.3 4.9-9.3 10.7-11.5 17.6-0.9 2.9-1.4 5.8-1.5 8.8 0 1.2 0 2.5 0.8 3.5 1.8 0.5 3.4 0.1 4.9-1q0.5-0.3 1-0.6 3.2-2.1 6.5-4.3c1-0.7 2-1.5 3.3-1.7 0.1 0 0.4 0.2 0.5 0.3 0.1 0.1 0.1 0.3 0 0.4-0.3 0.5-0.7 1-1.1 1.4-1.1 0.9-2.2 1.7-3.3 2.5-1.4 1.1-2.8 2.1-4.2 3.6 1.3 1.1 1.6 2.8 2.6 3.9 0.6 0 0.9-0.4 1.2-0.8q2.2-2.3 4.4-4.6c0.2-0.2 0.6-0.4 0.9-0.6 0.1 0 0.2-0.1 0.3 0 0.3 0.1 0.3 0.4 0.2 0.6q-1.9 2.8-3.7 5.6c-0.3 0.4-0.5 0.8-0.7 1.2 0.3 0.4 0.5 0.7 0.8 1 1.4 1.4 2.8 2.7 4.2 4.2 3.7 4.1 7.2 8.6 10.4 13.1 3.4 4.8 6.5 9.8 9.6 14.7 0.5 0.8 1.1 1.6 1.6 2.4zm229-188c0-0.3 0-0.5 0-0.7-0.4-1.2-0.6-2.5-0.8-3.7-0.1-1.3-0.4-2.7-0.8-4-0.6-2.1-1.4-4.2-2.1-6.3q-0.2-0.6-0.5-1-1.5-2.4-3.1-4.7c-0.5-0.7-1.1-0.9-2-0.6-2.9 1-5.8 2-8.8 3-15.9 5.2-31.8 10.6-47.5 16.3q-1.6 0.6-3.2 1.2c-0.4 0.2-0.7 0.8-0.6 1.2 0.9 2.9 1.3 5.8 1.7 8.8 0.5 3.6 1.1 7.1 1.4 10.7 0.1 0.6 0.2 1.2 0.4 1.8 0.1 0.2 0.4 0.4 0.6 0.3q0.8 0 1.5-0.3c2.6-0.9 5.1-1.8 7.7-2.7q21.6-7.1 43.1-14.3 5.5-1.8 11-3.6c0.6-0.2 1.1-0.5 1.7-0.8 0.1-0.1 0.2-0.4 0.3-0.6zm-194.1 91.1q0 0 0-0.1l0.1 0.1q0 0-0.1 0zm0.2 0.6c1.7 1.2 3.4 2.5 5.1 3.7 0.9 0.7 1.9 1.2 2.9 1.7 1.1 0.6 2.4 0.8 3.6 0.7 2.3-0.1 3.7-1.7 3.5-4-0.1-0.6-0.2-1.2-0.4-1.8-1.2-3.8-3.3-6.9-6.5-9.3-2.9-2-5.7-4-8.6-5.9q-1.6-1.1-3.3-1.9c-2.1-1-4.3-1-6.4 0.2-1 0.6-1.4 1.2-1.2 2.4 0.2 1.8 0.5 3.7 0.8 5.6 0.8 0.9 1.7 1.7 2.5 2.6 2 2.4 4.5 4 7.2 5.4 0.1 0.1 0.4 0 0.6 0 0.1 0.2 0.1 0.5 0.2 0.6zm160.6-40.7q0 0.1 0.1 0.2c-2 0-4 0-6 0-4.5 0.3-8.9 0.2-13.4-0.2-3.3-0.4-6.7-0.6-10-0.9-0.5-0.1-1 0.3-1 0.8q0.2 3.6 0.4 7.1c0 0.2 0.2 0.4 0.4 0.7 1.2 0.2 2.4 0.3 3.6 0.5 6.1 0.8 12.1 1.6 18.1 2.6 5.4 0.8 10.8 1.7 16.2 2.7 4.6 0.8 9.3 1.7 13.9 2.5 0.4 0.1 0.8 0 1.1-0.2 0.1-0.1 0-0.7-0.1-0.9-0.8-1.7-1.6-3.4-2-5.2-1.4-5.7-1.1-11.4 0.5-17 0.9-3.1 2.3-6 4.3-8.6 0.1-0.2 0-0.5 0-0.7 0 0-0.2-0.1-0.3-0.1-1.4 0-2.7 0-4.1 0.1-3.5 0.1-7 0.4-10.4 0.6q-9 0.4-17.9 0.9-0.6 0.1-1.1 0.1-8 0.6-16 1.2c-2.1 0.2-4.2 0.5-6.3 0.6q-0.6 0.1-0.9 0.6c-0.1 0.2 0.6 0.7 1.1 0.8 1 0.1 2 0.1 3 0.2q10.1 0.1 20.1 0.7c3.1 0.2 6.2 0.5 9.2 1.5 0.7 0.2 1.4 0.3 2.1 0.5q0 0 0 0c-1.3 0.2-2.7 0.2-4 0.5-1.7 0.5-3.4 0.6-5.2 0.7-4.6 0.1-9.2 0.2-13.8 0.2-3.3 0-6.7-0.2-10.1-0.3q-0.9 0-1.8 0.1c-0.2 0.1-0.4 0.3-0.4 0.5-0.1 0.5-0.1 1 0 1.5 0.1 0.3 0.4 0.6 0.6 0.8 0.3 0.2 0.7 0.2 1.1 0.2 3.7 0.4 7.4 0.9 11.1 1.3q6 0.5 11.8 2c2 0.5 4 0.9 6.1 1.4zm4.6-8.9c0.3-0.1 0.5-0.2 0.7-0.2q-0.1 0.1-0.3 0.2-0.2 0-0.4 0zm-330.5 73.7c-0.6-0.3-1.2-0.5-1.8-0.6-2-0.6-4.1-1-6.1-1.6q-14.3-4-28.7-8.1-3.9-1.2-7.8-2.3-0.6-0.1-1.1-0.3c-0.6-0.1-1.2 0.3-1.3 0.9-0.8 4.4-1.6 8.8-2.4 13.2q-1.4 8.3-2.7 16.6c-0.6 3.8-1.1 7.6-1.7 11.4 0 0.2 0 0.5 0 0.7 0 0.4 0.5 0.7 0.8 0.6q2.9-1.6 5.8-3.3 21.7-12.3 43.4-24.6c1-0.6 1.9-1.1 2.9-1.7 0.3-0.2 0.4-0.5 0.7-0.9zm-30.2-78.9c-0.2 0.5-0.5 1.1-0.7 1.7-1.7 5.4-3.5 10.8-4.9 16.4-1.3 4.8-2.4 9.6-3.6 14.4-0.1 0.5 0.2 1.1 0.6 1.2q0.5 0.2 1 0.4c7 2.1 14 4.3 20.8 6.3 0.6-0.2 0.7-0.6 0.6-1-0.5-1.3-1-2.5-1.5-3.8-4-10.5-7.3-21.1-10.4-31.8q-0.5-1.8-1.2-3.6c0-0.1-0.4-0.1-0.7-0.2zm396 11.7c0-1 0.1-2 0-3-0.1-2.5-0.7-4.9-1.6-7.2-1.1-2.9-2.7-3.8-5.8-3.4q-0.3 0-0.7 0.1c-1.1 0.2-2.1 0.7-2.9 1.6q-1.5 1.9-2.5 4.1c-1.3 2.9-1.9 5.9-2.4 9-0.5 3.7-0.1 7.4 1 11q0.6 2.2 1.9 4c0.6 0.8 1.3 1.6 2 2.2 1.6 1.3 4.7 1.5 6.4-0.7q1.6-2.1 2.5-4.5c1.5-4.3 2.3-8.7 2.1-13.2zm-429.9 136.2c-0.1-4.1-1.3-7.8-3.6-11.2q-2.3-3.2-5.6-5.4c-1.1-0.6-2.2-1.2-3.5-1.3q-2.6-0.2-4.1 2.1c-1.2 1.9-1.7 4.1-1.5 6.4 0.2 4.6 1.7 8.8 4.2 12.6 1.1 1.5 2.4 2.9 4 3.8 1.3 0.8 2.7 1.4 4.2 1.4 1.6 0.1 2.9-0.4 3.9-1.7 1.5-2 2.1-4.2 2-6.7zm204.1 9.5c1.5 0.1 2.9-0.3 4.2-1.1 4.8-2.8 8.9-6.3 12.1-10.8 1.4-1.9 1.8-4.1 2-6.3 0-1.4-0.8-2.4-2.2-2.7-0.7-0.1-1.4-0.1-2.2 0-1.8 0.3-3.6 0.8-5.3 1.6-3.8 1.9-7.3 4.2-10.2 7.4-1.1 1.1-2 2.5-2.9 3.8-0.6 0.9-1 1.9-1.3 3q-0.5 2.7 1.9 4.1c1.2 0.7 2.5 0.9 3.9 1zm-68.3-163.7c0.1-1.8-0.4-3.6-1-5.3-0.5-1.3-1.2-2.4-2.3-3.3-0.8-0.6-1.7-0.7-2.4-0.2-0.9 0.7-1.8 1.4-2.5 2.2-2.1 2.3-5.9 8.9-6.9 11.8q-0.1 0.2-0.1 0.4c-1 3.4-1.4 6.8-0.5 10.2 0.4 1.7 1.3 2.9 2.8 3.7 1.8 1 4.1 0.8 5.5-0.7 0.7-0.8 1.4-1.7 1.9-2.7 1.7-3.1 3.1-6.4 4.4-9.8 0.7-2 1.2-4 1.1-6.3zm-161.1 36.1c0-1 0-2.1-0.2-3.2-0.3-1.7-0.9-3.3-2.1-4.7-0.5-0.4-1-0.7-1.7-0.7-0.7-0.1-1.4 0-2.1 0.4-1.3 0.6-2.4 1.3-3.3 2.3-2.5 2.4-4.3 5.2-5.3 8.4-0.8 2.4-0.7 4.9-0.1 7.4 0.2 0.9 0.7 1.8 1.2 2.6 1.6 2.3 4.1 2.5 5.9 1.7 1-0.4 1.7-1 2.5-1.7 3.4-3.4 4.9-7.6 5.2-12.5zm449.5-67.9c0.7 0.3 1.1 0.2 1.4-0.3q1.3-1.9 1.1-4.2c-0.5-4.7-2.4-8.9-5.1-12.6-0.9-1.3-2.1-2.5-3.6-3.1-0.1 0-0.3-0.1-0.3 0-0.1 0.2-0.3 0.5-0.2 0.6 1.3 2.5 2.3 5.2 3.7 7.7 2.1 3.7 3.5 7.6 3 11.9z"/>
					<path id="&lt;Path&gt;" class="s9" d="m738.5 324.2c-1.3 1.4-2.6 2-3.9 2.8q-5.4 3.2-10.9 6.3-23 13.1-47.4 23.5c-2.1 0.9-4.2 1.6-6.3 2.3-0.7 0.3-1.4 0.3-2.2 0.3-0.6 0-1.1-0.4-1.4-1-0.3-0.7-0.1-1.7 0.5-2 0.7-0.4 1.3-0.8 2-1.1 2.1-1 4.3-1.9 6.4-2.9q13.8-6.3 27.4-12.7 15.6-7.2 31.4-13.8c1.3-0.6 2.7-1.1 4.4-1.7z"/>
					<path id="&lt;Path&gt;" class="s9" d="m317.7 387.9c1.2 0.9 2.5 1.9 3.7 3q6 5.6 11.9 11.3c6.2 5.9 12.4 11.9 18.2 18.1 2.3 2.4 4.4 4.8 6.5 7.2 0.8 0.9 1.5 1.8 1.9 2.8 0.2 0.6 0.1 1.2-0.4 1.7-0.4 0.5-1.2 0.7-1.7 0.5-0.5-0.3-1.1-0.6-1.6-1-0.7-0.7-1.4-1.4-2.1-2.1-10.9-11.1-21.5-22.5-31.9-34.1-1.7-1.9-3.5-3.8-4.9-6.1-0.1-0.2-0.2-0.4-0.3-0.6-0.1-0.2-0.1-0.5-0.1-0.7 0.2 0 0.4 0 0.8 0z"/>
					<path id="&lt;Path&gt;" class="s9" d="m692.2 320.2c-1 1.9-2.2 3.6-3.6 5.1-4.8 5.2-9.8 10.3-14.8 15.2q-4 4-8 7.9-1.2 1.2-2.4 2.2c-0.4 0.4-0.9 0.6-1.3 0.8-0.6 0.2-1.7-0.1-2.1-0.6-0.4-0.7-0.5-1.4-0.2-2.1q0.1-0.4 0.3-0.7 0.6-0.7 1.3-1.4c7.9-8.2 16.3-16 25.1-23.2 1.7-1.4 3.4-2.5 5.4-3.4 0 0 0.2 0.1 0.3 0.2z"/>
					<path id="&lt;Path&gt;" class="s9" d="m681.2 307.8c0.1 0.3 0.2 0.6 0.1 0.8-0.2 1.2-0.8 2.3-1.3 3.4-1.9 3.8-4.2 7.3-6.5 10.9-1.4 2-2.8 4.1-4.1 6.2q-3.7 5.5-7.4 11.1-0.6 0.9-1.3 1.8c-0.5 0.6-1.6 0.7-2.5 0.3-0.6-0.3-1-1.2-0.9-1.9 0.1-0.5 0.1-1 0.3-1.4q1-1.8 2.1-3.5c4.5-7.3 9.4-14.3 14.7-21 1.3-1.7 2.7-3.2 4.1-4.8 0.5-0.5 1.2-1 1.8-1.4 0.2-0.2 0.6-0.3 0.9-0.5z"/>
					<path id="&lt;Path&gt;" class="s9" d="m720.2 615.9c-0.3 0-0.6-0.1-0.9-0.1-4.1 0.1-8.1-0.6-12.1-1.6q-12.1-2.8-24-6.7c-1.2-0.4-2.3-1-3.4-1.5-0.3-0.2-0.6-0.5-0.7-0.8-0.3-0.6-0.3-1.2 0-1.8 0.4-0.6 1-0.9 1.6-0.9 1.1 0.1 2.2 0.4 3.2 0.7q3.6 1 7.2 2.1c6.4 1.9 12.9 3.6 19.2 5.9 2.8 1 5.6 2 8.1 3.6 0.6 0.3 1.2 0.7 1.8 1.1z"/>
					<path id="&lt;Path&gt;" class="s9" d="m281.3 692.4c0.6-2.9 1.7-5.6 3.4-8.1 1.7-2.5 3.4-5.1 5.3-7.6 4.8-6 9.6-12 14.5-17.9 0.7-0.9 1.5-1.7 2.3-2.4 0.4-0.4 0.9-0.4 1.4-0.2 0.5 0.2 1 1 0.8 1.5-0.1 0.5-0.2 1-0.5 1.4-0.8 1.2-1.6 2.5-2.5 3.6q-8.1 10.5-16.2 20.9c-2.5 3.3-5 6.5-8.5 8.8z"/>
					<path id="&lt;Path&gt;" class="s9" d="m728.7 580.9c-0.1 0.6-0.6 0.7-1 0.9-2 0.8-4.1 1.2-6.1 1.6q-5 1-10 1.6c-5.4 0.7-10.8 1.3-16.3 1.9q-1.8 0.2-3.7 0.2c-1.2-0.1-2.1-1-2.2-2.2 0-0.8 0.6-1.8 1.3-2 1.5-0.3 3-0.6 4.4-0.8 3.7-0.4 7.4-0.9 11.2-1.2 5.8-0.6 11.6-1.2 17.4-0.9 1.3 0.1 2.5 0.3 3.8 0.4 0.4 0.1 0.9 0.1 1.2 0.5z"/>
					<path id="&lt;Compound Path&gt;" fill-rule="evenodd" class="s9" d="m218.8 582.8q-2.1 0.2-4.1 0.4-2.2 0.2-4.4 0.4c-1.9 0.2-3.7 0.1-5.5-0.6-1.5-0.6-3.1-1-4.7-0.5-1.3 0.3-2.5 0-3.6-0.6-0.5-0.2-0.9-0.5-1.2-0.9-1-1-1-2.5 0.1-3.3q2-1.6 4.2-3c1-0.7 2.3-1 3.5-1 1.4 0 2.8 0 4.1 0.4q0.7 0.2 1.4 0.4c2.2 0.6 4.3 0.9 6.6 0.4 2.8-0.7 5.4 0.1 7.8 1.7q1.1 0.7 1.6 2c0.4 0.8 0.3 1.7-0.2 2.5-0.6 1-1.5 1.7-2.7 1.8-0.9 0.1-1.9 0-2.9 0q0-0.1 0-0.1zm-2.1-2.4c1.8 0 3.1 0 4.3-0.1 0.2 0 0.4-0.2 0.6-0.4 0.2-0.2 0.1-0.7-0.2-0.9-0.8-0.7-1.6-1.2-2.6-1.5-1.2-0.3-2.4-0.3-3.6-0.1-2.5 0.5-5 0.4-7.4-0.5-0.8-0.3-1.6-0.5-2.5-0.6-2.6-0.6-4.9 0-6.8 1.9-0.4 0.5-0.7 1.1-0.5 1.3 0.3 0.2 0.7 0.3 1 0.3 0.6 0.1 1.2 0 1.8 0 1.5-0.1 3 0 4.4 0.7 1.8 0.8 3.6 0.8 5.4 0.5 2.2-0.3 4.5-0.5 6.1-0.6z"/>
					<path id="&lt;Path&gt;" class="s9" d="m274.4 594.4c2.6-2 5.6-2.7 8.6-3.4 4.1-1.1 8.2-2 12.3-3 3.1-0.8 6.2-1.8 9.3-2.6 0.8-0.2 1.5-0.3 2.2-0.4 0.7 0 1.2 0.4 1.5 1 0.3 0.4 0.2 1.4-0.3 1.7-0.4 0.4-0.9 0.8-1.4 1.1-1.7 0.8-3.4 1.5-5.2 2.2-3.9 1.3-7.9 2.2-11.9 3-3.3 0.6-6.6 1.2-9.9 1.4-1.7 0.1-3.3 0.1-4.8-0.5-0.2 0-0.2-0.3-0.4-0.5z"/>
					<path id="&lt;Path&gt;" class="s9" d="m272.6 560.7q2.2 0.1 4.4 0.3c3.7 0.2 7.4 0.9 11 1.8 5.4 1.4 10.7 3.1 16 4.7 0.5 0.1 1 0.3 1.4 0.5 0.6 0.4 1.1 1 1.1 1.8 0 0.9-0.6 1.8-1.5 2-0.4 0.1-0.9 0.2-1.4 0.2-1-0.2-2-0.3-2.9-0.6-7.6-2.4-15.2-4.7-22.6-7.5-1.8-0.8-3.5-1.7-5.3-2.6q-0.4-0.2-0.2-0.6z"/>
					<path id="&lt;Path&gt;" class="s9" d="m314.2 426.8c1.7-0.1 3.4 0.5 5 1 3 0.8 5.9 2.1 8.7 3.3 5 2.1 9.7 4.5 14.3 7.1q0.8 0.5 1.6 1.1c0.9 0.6 1.2 1.7 0.8 2.6-0.4 0.9-1.6 1.4-2.6 1q-1.2-0.5-2.4-1.1c-6-2.9-12-5.9-17.8-9.3-2.7-1.6-5.4-3.4-7.6-5.7z"/>
					<path id="&lt;Compound Path&gt;" fill-rule="evenodd" class="s9" d="m280.7 728.3c-0.8 0-1.6 0.1-2.3 0-0.6-0.1-1.1-0.5-1.6-0.8-0.8-0.6-1.1-1.8-0.7-2.8 0.5-1.3 1.5-2.2 2.7-3 1.8-1.1 3.8-1.8 5.9-2.1 3.3-0.5 6.7-0.9 10-0.9 1.1 0 2 0.2 2.8 0.9 0.2 0.3 0.6 0.5 0.8 0.7 0.9 0.8 1 2.1 0.3 3.1-0.6 0.8-1.3 1.4-2.3 1.9-0.3 0.1-0.7 0.2-1 0.3-4.1 1.1-8.2 2-12.4 2.6-0.8 0.1-1.5 0.1-2.2 0.2q0-0.1 0-0.1zm14.8-6c0-0.2 0-0.3 0-0.4 0-0.1-0.1-0.2-0.2-0.2-3.8-0.1-7.5 0.1-11.1 0.9-1.5 0.3-2.9 0.8-4.2 1.6q-0.3 0.3-0.5 0.6c-0.1 0 0 0.2 0 0.3 0 0.1 0.1 0.3 0.1 0.3 0.3 0 0.5 0.1 0.7 0.1 5.1-0.2 9.8-1.5 14.6-2.8 0.2-0.1 0.4-0.3 0.6-0.4z"/>
					<path id="&lt;Compound Path&gt;" fill-rule="evenodd" class="s9" d="m417.5 316.2c1-0.1 1.7 0.3 2.4 0.8 1.8 1.3 3 3.1 3.6 5.1 0.9 2.6 1.5 5.2 2.2 7.9 0.3 1.6-0.1 3.1-1.2 4.5-1 1.3-2.8 1.6-4.3 0.7q-1.4-0.9-2.2-2.4-1-1.8-1.7-3.7c-0.9-2-1.4-4.1-2.5-6.1-0.9-1.8-0.6-3.7 0.6-5.3 0.7-1 1.8-1.6 3.1-1.5zm5.6 15.2c0-0.6 0-1.1-0.1-1.6-0.5-2.4-1.2-4.8-2.1-7.1-0.5-1-1.1-1.9-1.9-2.7-0.2-0.3-0.5-0.5-0.8-0.7-0.8-0.5-1.9 0-1.9 1-0.1 0.4-0.1 0.8 0 1.1 1 1.6 1.3 3.5 1.9 5.2 0.6 1.8 1.3 3.5 2.3 5.1 0.2 0.4 0.6 0.7 1 1 0.3 0.3 1.1 0.1 1.3-0.3q0.2-0.6 0.3-1z"/>
					<path id="&lt;Compound Path&gt;" fill-rule="evenodd" class="s9" d="m612.4 816.2c2.3 0.4 4.7 0.6 7 1.1 1.2 0.2 2.3 0.7 3.5 1.2 0.9 0.3 1.6 1.1 2.1 1.9 0.9 1.5 0.6 3.3-0.7 4.4-1 0.8-2.1 1.2-3.4 1.2-0.8 0-1.5-0.2-2.2-0.3-2.7-0.3-5.4-0.9-8.1-1.1-1.6-0.2-3.2-0.5-4.6-1.4-0.9-0.6-1.2-1.7-0.8-2.6 0.9-2.1 2.6-3.3 4.6-4.1 0.8-0.4 1.7-0.3 2.6-0.3zm-1 2.8c-1.6-0.3-2.6 0.5-3.5 1.7-0.1 0.1 0 0.4 0 0.7 0 0 0.2 0.1 0.3 0.2 0.3 0 0.7 0.1 1.1 0.1q3.9-0.1 7.7 0.8 1.7 0.3 3.4 0.5c0.4 0.1 0.9 0 1.4-0.1 0.2-0.1 0.4-0.3 0.5-0.5 0.2-0.2 0.1-0.8-0.1-1-0.7-0.6-1.5-0.9-2.3-1.2-2.8-0.7-5.7-0.8-8.5-1.2z"/>
					<path id="&lt;Compound Path&gt;" fill-rule="evenodd" class="s9" d="m643.9 702.6c-0.1 1.6-1.3 2.7-2.9 2.7-0.9 0-1.7-0.3-2.5-0.8-1.3-0.9-2.4-2.1-3.4-3.4-0.6-0.9-1.2-1.9-1.9-2.8-0.8-1.2-1.6-2.5-2.5-3.6-0.7-0.9-1.2-1.9-1.4-3-0.3-1.4 0.1-2.5 1.1-3.4 1.1-1 2.5-1.2 3.8-0.6 0.8 0.4 1.5 0.9 2.1 1.5 0.8 0.6 1.4 1.4 1.9 2.3 1.6 2.2 3 4.5 4.5 6.8 0.8 1.3 1.2 2.7 1.2 4.3zm-2.8-0.8c-0.1-0.5-0.1-1-0.3-1.4-1.5-2.4-3-4.8-4.6-7.2-0.6-0.8-1.3-1.4-2-2.1-0.3-0.3-0.6-0.5-1-0.6-0.1-0.1-0.5 0-0.6 0.2-0.2 0.1-0.3 0.4-0.3 0.6 0 0.2 0.1 0.5 0.3 0.7 1.5 3.1 3.5 5.9 5.6 8.6 0.5 0.6 1.1 1 1.7 1.5 0.1 0.1 0.4 0.2 0.7 0.1 0.1 0 0.3-0.2 0.5-0.4z"/>
					<path id="&lt;Compound Path&gt;" fill-rule="evenodd" class="s9" d="m211.5 779.7c-0.5-0.2-1-0.2-1.5-0.4-0.7-0.3-1.2-0.9-1.3-1.7q-0.4-2 0.9-3.5c1.8-2.2 4.2-3.4 6.9-4 1.9-0.3 3.7-0.7 5.5-0.9 1.8-0.3 3.5 0 5.1 0.9 0.4 0.2 0.8 0.5 1.1 0.9 1 1 1 2.7 0.2 3.8-0.8 1-1.9 1.6-3.1 2-0.5 0.2-1 0.2-1.5 0.3-2.9 0.5-5.8 1-8.7 1.9-1.2 0.3-2.4 0.4-3.6 0.7zm10.2-8.3c-2.4 0.2-4.9 0.5-7.1 1.7-1.4 0.7-2.6 1.5-3.3 2.9-0.1 0.2-0.2 0.5-0.1 0.7 0.1 0.1 0.4 0.3 0.6 0.3 0.9-0.1 1.7-0.3 2.6-0.5 2.8-0.7 5.6-1.7 8.6-1.9 0.7-0.1 1.4-0.4 2.1-0.7 0.4-0.1 0.7-0.3 0.7-0.7 0-0.5-0.2-0.7-0.5-0.9-1.1-0.7-2.4-0.6-3.6-0.9z"/>
					<path id="&lt;Compound Path&gt;" fill-rule="evenodd" class="s9" d="m283.3 745.1q0-1.3 0.6-2.5c0.6-1.4 1.5-2.6 2.4-3.7 2.5-2.9 5.5-5.1 8.5-7.3 0.3-0.2 0.7-0.2 1.1-0.2 1.7 0.1 3.1 1.4 3.2 3.1 0.1 1 0.1 2-0.5 2.9-0.6 0.9-1.1 1.9-1.9 2.7-2.5 2.8-5.5 5-8.8 6.8-0.4 0.3-0.9 0.4-1.4 0.6-1.5 0.6-3.3-0.4-3.2-2.4zm3.3-0.5c0.2-0.1 0.5-0.2 0.7-0.3 2.4-1.5 4.5-3.4 6.5-5.4 0.8-0.7 1.4-1.7 2-2.6 0.3-0.5 0.3-1 0.1-1.4-0.2-0.4-0.7-0.4-1.3 0.1q-2.1 1.7-4.2 3.5c-1.4 1.2-2.6 2.7-3.6 4.2-0.3 0.4-0.4 0.9-0.6 1.4 0 0.1 0.1 0.2 0.1 0.3 0.1 0.1 0.2 0.1 0.3 0.2z"/>
					<path id="&lt;Compound Path&gt;" fill-rule="evenodd" class="s9" d="m247 426c0.4 0.1 1.1 0.2 1.8 0.4 1.2 0.5 2.3 1 3.4 1.6 1.6 1 3.2 1.9 5 2.5 2.1 0.8 3.8 2.3 4.8 4.4q0.3 0.5 0.5 1c0.3 1.3-0.3 2.5-1.6 3.1-1.2 0.5-2.4 0.6-3.6 0.1-1.1-0.5-2.3-1.1-3.2-1.8-2.3-1.7-4.5-3.1-7.1-4.1-1.3-0.5-2.4-1.3-3.4-2.3-0.7-0.8-0.8-2.2-0.1-3.1 0.6-1 1.9-1.7 3.5-1.8zm0.3 2.7q-0.4 0.1-0.7 0.1c-0.5 0.1-0.9 0.8-0.6 1.1 0.3 0.5 0.5 0.9 0.9 1.2 0.6 0.3 1.3 0.6 2.1 0.7 1.9 0.3 3.5 1.2 5.1 2.2 0.9 0.6 1.8 1.2 2.8 1.8q0.6 0.4 1.3 0.6c0.3 0.1 0.7 0.2 1-0.1 0.3-0.2 0.2-0.7 0-1q-0.9-1.2-2.3-2-3.4-1.8-6.8-3.7-1.3-0.8-2.8-0.9z"/>
					<path id="&lt;Compound Path&gt;" fill-rule="evenodd" class="s9" d="m307.2 478.8c0.4 0.1 1.2 0.2 1.9 0.4 2.9 1.2 5.5 2.8 7.7 5 0.8 0.8 1.5 1.7 2 2.7 1.1 1.9-0.3 4.5-2.5 4.8-0.8 0.1-1.7 0.1-2.5-0.2q-1.1-0.4-2-0.9c-2.1-1.2-4.1-2.4-6.2-3.5-1.2-0.7-2-1.8-2.6-3.1-1-2.3 0.6-4.9 3.2-5.1 0.2 0 0.5 0 1-0.1zm-0.7 2.6c-0.7 0-1.3 0.9-1 1.6 0.2 0.9 0.9 1.5 1.7 1.8 2.4 0.9 4.7 2.2 6.9 3.5 0.3 0.2 0.6 0.3 1 0.4 0.2 0 0.5-0.1 0.7-0.1q0.5-0.1 0.4-0.6c-0.1-0.2-0.1-0.5-0.2-0.7-1.7-2-3.8-3.5-6-4.9-1-0.7-2.2-1-3.5-1z"/>
					<path id="&lt;Compound Path&gt;" fill-rule="evenodd" class="s9" d="m677.5 633.7c-2.6-0.4-4.9 0.4-7.2 1.5-1.2 0.7-2.4 1.3-3.6 1.9-0.7 0.4-1.5 0.3-2.1-0.2-0.7-0.6-1-1.4-0.9-2.3 0.2-0.9 0.6-1.7 1.1-2.4 1.5-2.1 3.6-3.4 5.9-4.4 0.5-0.2 1-0.2 1.5-0.2 1.6 0.1 3.2-0.1 4.8-0.2 1.2-0.1 2.5 0 3.7 0.2 1.1 0.2 2.1 0.7 2.9 1.6 0.7 0.8 0.9 1.8 0.3 2.7-0.5 0.9-1.3 1.5-2.3 1.7-1.4 0.4-2.7 0.3-4.1 0.1zm2-2c0.4-0.1 0.9-0.2 1.4-0.3 0.2-0.1 0.5-0.4 0.5-0.5-0.1-0.3-0.3-0.7-0.6-0.8q-1.9-0.7-3.9-0.8c-2 0-3.9 0.7-5.9 0.7-0.2 0-0.5 0.2-0.7 0.3-1.7 0.8-3.2 1.9-4 3.7-0.1 0.1-0.1 0.2-0.1 0.3 0.2 0.3 0.4 0.4 0.6 0.3q2-1 4-2.1 2.6-1.5 5.7-1.1c1 0.1 2 0.2 3 0.3z"/>
					<path id="&lt;Compound Path&gt;" fill-rule="evenodd" class="s9" d="m649.8 693.4c-2 0-3-0.5-3.9-1.2-1.3-1.1-1.7-3.2-0.9-4.8 0.3-0.7 0.8-1.3 1.6-1.5 2.5-0.7 5-1.3 7.5-2 1.5-0.4 3-0.2 4.4 0.4q0.3 0.1 0.7 0.3c2 1.2 2.4 3.6 0.6 5.3-0.5 0.5-1.2 0.9-1.9 1.2q-3 1.1-6 2c-0.9 0.2-2 0.3-2.1 0.3zm-0.3-2.9c0.5-0.1 1.2-0.1 1.9-0.3q2.9-0.8 5.7-1.7c0.2 0 0.4-0.2 0.6-0.4 0.2-0.1 0.2-0.7 0-0.9-0.4-0.4-0.9-0.5-1.4-0.6-2.8-0.4-5.3 0.4-7.8 1.5q-0.2 0.1-0.4 0.2c-0.2 0.2-0.5 0.9-0.4 1.3 0.1 0.4 0.5 0.6 0.8 0.7 0.2 0.1 0.5 0.1 1 0.2z"/>
					<path id="&lt;Compound Path&gt;" fill-rule="evenodd" class="s9" d="m792.2 459.4c-0.1 1.8-0.7 2.7-1.8 3.3q-0.6 0.3-1.3 0.5c-0.4 0.1-0.8 0.1-1.1 0.2-2.9 0.2-5.7 0.7-8.3 1.8-0.7 0.3-1.5 0.4-2.2 0.4-1.1 0.1-2.1-1.2-1.8-2.2 0.2-0.7 0.5-1.5 0.9-2.1 1.1-1.7 2.6-2.9 4.4-3.9 2.8-1.4 5.7-1.7 8.6-0.7q0.6 0.2 1 0.5c1.1 0.6 1.6 1.5 1.6 2.2zm-5.3-0.8c-3.6-0.2-6.1 1.2-8 3.5-0.1 0.1-0.1 0.3-0.1 0.3 0.1 0.2 0.4 0.4 0.5 0.4 2.9-1.1 6-1.7 9.1-1.9 0.2 0 0.5-0.1 0.6-0.3 0.2-0.1 0.4-0.4 0.4-0.6 0-0.2-0.1-0.4-0.3-0.6-0.3-0.2-0.6-0.4-0.9-0.5-0.6-0.2-1.2-0.3-1.3-0.3z"/>
					<path id="&lt;Path&gt;" class="s9" d="m305 652.6c0 0.2 0 0.6-0.2 0.9-0.5 0.5-1 1.1-1.6 1.5q-5.5 4.1-11.1 8.1c-1.8 1.3-3.8 2.3-6 2.7-0.1 0.1-0.3 0-0.3 0-0.1-0.2-0.2-0.5-0.1-0.6q1.4-2.7 3.7-4.6 5.4-4.6 11.3-8.4c0.8-0.6 1.7-1 2.8-1.1 0.6 0 1.5 0.6 1.5 1.5z"/>
					<path id="&lt;Compound Path&gt;" fill-rule="evenodd" class="s9" d="m324.6 353.4c0.8 0 1.6 0.1 2.4 0.6 0.8 0.5 1.6 1 2.4 1.6q2.9 2.4 5.7 4.8c0.4 0.4 0.9 0.8 1.2 1.3 0.7 0.9 0.8 1.8 0.2 2.8-0.4 0.7-1 1.2-1.8 1.2q-1.3-0.1-2.5-0.4c-0.6-0.1-1.2-0.4-1.7-0.7-2.7-1.6-5.2-3.3-7.5-5.4-0.4-0.4-0.8-0.9-1.1-1.4-1.2-2.2 0.2-4.5 2.7-4.4zm9.2 9.6c0-0.2 0-0.5-0.1-0.6-1.9-1.6-3.7-3.3-5.6-4.8-1-0.8-2.1-1.4-3.4-1.6 0 0-0.2 0.1-0.2 0.2-0.1 0.1-0.1 0.3-0.1 0.4 0 0.2 0.1 0.5 0.3 0.6 2.4 2.3 5.2 4.2 8.1 5.8 0.2 0.1 0.5 0.1 0.7 0.1 0.1 0 0.2-0.1 0.3-0.1z"/>
					<path id="&lt;Path&gt;" class="s9" d="m303 688c-0.5-2.8 0-5.2 0.9-7.6q1.1-3 2.3-5.8c1.1-2.5 2.2-5 2.9-7.7 0.3-1 0.7-2.1 1.4-3 0.3-0.3 1-0.5 1.4-0.3 0.2 0.2 0.6 0.6 0.6 0.9 0 0.7 0 1.5-0.2 2.2-0.8 2.7-1.6 5.4-2.5 8.1-1 2.8-2.1 5.6-3.2 8.4-0.4 0.9-0.9 1.8-1.4 2.6-0.5 0.8-1.1 1.5-2.2 2.2z"/>
					<path id="&lt;Compound Path&gt;" fill-rule="evenodd" class="s9" d="m390.8 352c0.1 0-0.2 0-0.4 0-2.4-0.7-4.9-0.8-7.3-0.8-0.4 0-0.8-0.1-1.1-0.2-1.5-0.3-2.5-1.9-2.1-3.4 0.6-2.6 3-4.5 5.7-4.4 2.9 0.2 5.6 0.9 8 2.6q0.3 0.2 0.6 0.4c0.9 1 1.5 2 1.1 3.4-0.4 1.2-1.8 2.3-3 2.4-0.4 0-0.8 0-1.5 0zm-5.1-5.9c-0.3 0-0.8 0-1.3 0.1-0.6 0.1-1.1 0.5-1.4 1-0.1 0.2-0.2 0.5-0.2 0.7 0.1 0.2 0.3 0.4 0.5 0.4 2.7 0.2 5.4 0.5 8.1 1.1 0.5 0.1 1 0 1.4-0.3 0.3-0.3-0.1-0.8-0.9-1.4-1.4-0.9-2.8-1.5-4.5-1.5-0.5 0-1-0.1-1.7-0.1z"/>
					<path id="&lt;Compound Path&gt;" fill-rule="evenodd" class="s9" d="m239.1 653.6c-1.4 0.1-2.3-0.3-3.1-0.9-0.9-0.5-1.1-1.7-0.8-2.6 0.7-1.6 1.8-2.7 3.2-3.6 2.1-1.3 4.5-2 6.9-2.3 1.3-0.2 2.5-0.1 3.7-0.1 0.8 0 1.5 0.3 2.1 0.8 1.1 0.8 1.4 2.5 0.5 3.6-0.5 0.5-1 1.2-1.7 1.4-3.1 1.3-6.1 2.7-9.3 3.5-0.6 0.2-1.3 0.2-1.5 0.2zm-0.6-2.2c0.9 0.1 1.7-0.1 2.5-0.4q3.8-1.5 7.5-3c0.2-0.1 0.2-0.1 0.4-0.2 0.4-0.2 0.6-0.6 0.4-0.8-0.2-0.2-0.4-0.5-0.6-0.5-0.9-0.1-1.9-0.3-2.9-0.2-1.9 0.3-3.8 0.9-5.6 1.8-1 0.5-1.9 1.1-2.5 2.1-0.1 0.2-0.1 0.5 0 0.7 0 0.2 0.3 0.3 0.4 0.5 0.1 0 0.3 0 0.4 0z"/>
					<path id="&lt;Path&gt;" class="s9" d="m755.8 542.2q0.2 0.4-0.1 0.4c-0.3 0-0.5 0.1-0.7 0-1.4-0.1-2.7-0.7-3.9-1.2-2.2-1-4.3-2-6.4-3.1-4.2-2.1-8.3-4.4-12.5-6.6-0.4-0.2-0.8-0.5-1.1-0.9-0.2-0.2-0.3-0.7-0.2-1 0.1-0.3 0.4-0.6 0.7-0.7 0.5-0.1 1-0.2 1.5 0q1.5 0.6 3 1.3c5.5 2.9 10.9 5.9 16.2 9.2 1.1 0.6 2.1 1.4 3.1 2.1 0.1 0.1 0.2 0.4 0.4 0.5z"/>
					<path id="&lt;Path&gt;" class="s9" d="m691.9 592.4c3.7 0.2 7.4 0.6 11 1.5 1.3 0.3 2.6 0.7 3.8 1.3 0.1 0.1 0.3 0.1 0.4 0.1 0 0.3-0.3 0.2-0.5 0.3-1.7 0.8-3.6 1-5.4 1.2-4.1 0.4-8.1 0.3-12.2-0.3-0.6 0-1.2-0.2-1.8-0.4-0.5-0.2-1.1-1.2-1-1.9 0.1-0.6 0.7-1.5 1.3-1.6 0.4-0.1 0.7-0.2 1.1-0.2q1.7 0 3.3 0z"/>
					<path id="&lt;Compound Path&gt;" fill-rule="evenodd" class="s9" d="m802.2 498c-0.6-0.1-1.3-0.2-2-0.4q-1.1-0.3-2-0.9c-1.5-0.7-3-1.2-4.6-1.3-0.7-0.1-1.5-0.3-2.1-0.6-1.3-0.6-1.9-2-1.5-3.4 0.6-1.9 1.9-2.9 3.8-2.9 1-0.1 1.9 0.1 2.8 0.6 0.5 0.2 0.9 0.4 1.3 0.7 1.5 0.9 3 1.8 4.6 2.3q1.5 0.5 2.4 1.7c0.5 0.8 0.6 1.6 0.4 2.5-0.1 0.6-0.5 1.1-1.1 1.3-0.6 0.2-1.2 0.3-2 0.4zm-8.2-7.1c-0.5 0-0.8 0.1-1 0.1-0.1 0-0.3 0-0.4 0.1-0.2 0.3-0.5 0.5-0.6 0.8-0.2 0.4 0.2 1.1 0.7 1.1 2.5 0.4 5 1.3 7.3 2.4q0.7 0.3 1.4 0.5c0.2 0.1 0.5 0.1 0.7 0.2 0.4 0.1 1-0.1 0.9-0.4-0.1-0.2-0.2-0.5-0.3-0.6-2.3-1.2-4.6-2.4-6.8-3.7-0.6-0.4-1.4-0.4-1.9-0.5z"/>
					<path id="&lt;Compound Path&gt;" fill-rule="evenodd" class="s9" d="m717.1 650.1c-0.8 0-1 0-1.1 0-1.7 0-2.6-1.4-1.9-3.1 0.9-1.9 2.2-3.3 4.1-4.2q2.2-1 4.5-1.7c2-0.6 4.4 1 4.7 3.1 0.1 0.3 0 0.7-0.1 1.1-0.2 0.8-0.7 1.5-1.4 2.1-0.8 0.8-1.8 1.3-2.9 1.6-2.2 0.4-4.4 0.8-5.9 1.1zm-0.2-2.7c2.4-0.2 4.8-0.7 6.4-1.5 0.3-0.1 0.6-0.5 0.8-0.7 0.3-0.3 0.2-0.9-0.1-1-0.4-0.1-0.9-0.3-1.4-0.2-1.4 0.1-2.7 0.6-3.8 1.3-0.9 0.5-1.7 1-1.9 2.1z"/>
					<path id="&lt;Compound Path&gt;" fill-rule="evenodd" class="s9" d="m748.5 600.9c0-0.3 0.1-1.2 0.4-2 1.1-2.9 3.2-5 6.1-6.2 1.6-0.7 3.1-0.6 4.6 0.5 1.1 0.8 1.4 2.5 0.6 3.6-0.5 0.6-1 1.2-1.5 1.6q-2.9 2.1-5.9 4.1c-0.6 0.3-1.3 0.6-2 0.7-1.3 0.2-2.3-0.5-2.3-2.3zm2.9-0.5c2-1.2 3.9-2.5 5.8-3.9 0.2-0.3 0.5-0.6 0.7-0.8 0.2-0.2 0-0.8-0.2-0.9-0.5-0.3-1-0.4-1.5-0.2-2.5 1-4.2 2.8-5.2 5.3 0 0.1 0.3 0.3 0.4 0.5z"/>
					<path id="&lt;Compound Path&gt;" fill-rule="evenodd" class="s9" d="m330.4 483.6c-0.8 0-1.5-0.2-2-0.8-0.7-0.7-1.4-1.5-1.9-2.3-0.9-1.2-1.6-2.5-2.4-3.8-0.8-1.4-0.6-3.2 0.5-4.4 0.9-0.9 2.5-1.1 3.5-0.5 0.5 0.4 1 0.8 1.3 1.3q1.7 2.4 3.2 5c0.3 0.5 0.5 1.2 0.6 1.8 0.1 0.3 0.1 0.7 0.1 1.1-0.1 1.2-0.9 2.8-2.9 2.6zm-3.7-9.2c-0.3 0.1-0.4 0.3-0.2 0.6 0.5 1 1.1 2.1 1.8 3.1 0.4 0.7 1 1.4 1.5 2.1 0.1 0 0.3 0.1 0.4 0 0 0 0.1-0.1 0.1-0.2 0.1-2.6-1.3-4.3-3.2-5.7-0.1 0-0.3 0-0.4 0.1z"/>
					<path id="&lt;Compound Path&gt;" fill-rule="evenodd" class="s9" d="m290.8 416.9c2.2-0.1 4.3 2.1 4.5 4.2q0.3 2.4 0.6 4.8c0 0.7-0.3 1.4-0.7 2.1-0.6 1-2.2 1.5-3.2 0.8-0.7-0.5-1.4-1.1-1.9-1.8-0.6-0.8-1-1.7-1.4-2.6-0.9-1.6-0.9-3.3-0.7-5 0.1-1.3 1.5-2.5 2.8-2.5zm2.5 7.2c-0.1-0.9-0.1-1.7-0.2-2.4-0.2-0.9-0.7-1.6-1.5-2.1-0.1-0.1-0.4-0.2-0.6-0.1-0.2 0.1-0.4 0.3-0.5 0.5-0.1 0.2 0 0.5 0 0.7 0.1 1.9 0.9 3.3 2 4.8 0 0 0.2 0 0.3 0 0.1 0 0.3-0.1 0.3-0.1 0.1-0.5 0.2-1 0.2-1.3z"/>
					<path id="&lt;Path&gt;" class="s9" d="m748 408.1c-0.3-0.1-0.4-0.1-0.5-0.2q-0.3-0.3 0-0.6c0.6-0.6 1.2-1.3 1.9-1.8 1.1-0.7 2.3-1.4 3.5-2.1q4.9-2.7 9.7-5.4c0.4-0.2 0.7-0.3 1.1-0.4 0.3-0.2 1.1 0.1 1.3 0.4 0.4 0.4 0.4 1.3 0 1.7-0.3 0.3-0.7 0.7-1.1 0.9-3.8 2.3-7.7 4.5-11.8 6.4q-1.2 0.5-2.4 0.9c-0.6 0.2-1.2 0.2-1.7 0.2z"/>
					<path id="&lt;Path&gt;" class="s9" d="m285.4 575.6c0.7-0.6 1.5-1 2.4-1 1.7-0.2 3.4-0.4 5.1-0.4 2.4-0.1 4.7-0.1 7.1 0 0.6 0 1.2 0.1 1.8 0.3 0.5 0.1 0.9 0.8 0.9 1.4 0 0.6-0.4 1.3-0.9 1.4-0.4 0.2-0.7 0.3-1.1 0.3-4.4 0.3-8.9 0.3-13.2-0.8-0.9-0.1-1.7-0.3-2.1-1.2z"/>
					<path id="&lt;Compound Path&gt;" fill-rule="evenodd" class="s9" d="m230.6 569.5c-0.3 0-0.9 0-1.5-0.3-1.8-1-3.4-2.4-4.4-4.4-0.9-2-0.5-3.8 1.2-5.3 0.8-0.6 1.6-0.7 2.5-0.4 0.9 0.4 1.8 0.9 2.3 1.7q1.4 2 2.6 4.1c0.2 0.4 0.3 0.9 0.4 1.4 0.2 1.8-1 3.2-3.1 3.2zm-3.3-8c-0.4 0.1-0.9 0.7-0.8 1.1 0 0.4 0 0.7 0.1 1.1 0.8 1.6 2.2 2.6 3.7 3.3 0.2 0.1 0.5 0 0.7-0.1 0.3-0.1 0.3-0.3 0.3-0.6-0.4-1.7-1.4-3.1-2.6-4.3-0.2-0.2-0.4-0.3-0.7-0.4-0.2-0.1-0.4 0-0.7-0.1z"/>
					<path id="&lt;Compound Path&gt;" fill-rule="evenodd" class="s9" d="m708.2 537.7c0.8 0.2 1.4 0.3 2 0.5 1.5 0.5 2.1 2.3 1.3 3.6-0.2 0.4-0.4 0.7-0.7 0.9-1.8 1.8-3.8 3.1-6.1 4-1.2 0.4-2.6-0.5-2.6-1.9 0-0.5 0-1 0.1-1.4 0.9-2.3 2.4-4.1 4.5-5.3 0.5-0.3 1.1-0.3 1.5-0.4zm0.8 3.1q0.2-0.4-0.3-0.5-0.7-0.2-1.4 0.2-1.7 1.1-2.6 3c-0.1 0.2 0 0.4 0.2 0.6 0.1 0 0.3 0 0.4 0 1.4-0.7 2.6-1.8 3.6-2.9 0.1-0.1 0.1-0.3 0.1-0.4z"/>
					<path id="&lt;Compound Path&gt;" fill-rule="evenodd" class="s9" d="m308.8 715c-1.9-0.1-3.8-0.9-5.2-2.6-0.8-0.9-0.9-2-0.5-3.1q0.6-1.5 2-2.2c0.4-0.2 0.9-0.4 1.4-0.1 1.3 0.5 2.5 1.1 3.7 1.7 0.7 0.3 1.2 0.8 1.7 1.4 1 0.9 0.9 2.8-0.1 3.7-0.8 0.7-1.7 1.1-3 1.2zm0.9-3.1c0-0.1 0-0.3 0-0.3q-1.4-1-2.8-1.9c-0.1-0.1-0.5 0-0.7 0-0.2 0.1-0.5 0.2-0.6 0.4 0 0.2 0.1 0.5 0.2 0.7 0.1 0.2 0.3 0.4 0.5 0.5q1.3 0.6 2.7 1.1c0.1 0.1 0.4-0.1 0.6-0.2 0.1-0.1 0.1-0.2 0.1-0.3z"/>
					<path id="&lt;Path&gt;" class="s9" d="m757.9 412c-0.5 0.5-0.8 0.9-1.2 1.1-1 0.5-2 1.1-3 1.4-3 0.9-6 1.7-8.9 2.5-0.5 0.2-1 0.2-1.5 0.2-0.5 0-1.2-0.5-1.3-1.1-0.2-0.6 0.1-1.2 0.6-1.5 0.3-0.2 0.5-0.3 0.7-0.4 3.2-1 6.4-1.9 9.7-2.4 1-0.2 2.2-0.2 3.3-0.2 0.4 0 0.9 0.2 1.6 0.4z"/>
					<path id="&lt;Path&gt;" class="s9" d="m349.7 434.2c-0.1 0.8-0.9 1.7-1.8 1.6-0.3-0.1-0.8-0.1-1.1-0.2-3.3-2.2-6.6-4.4-8.8-7.9q-0.1-0.1-0.2-0.3c0-0.1 0-0.3 0-0.3 0.2-0.2 0.4-0.4 0.5-0.4 1.6 0.1 2.9 0.7 4.3 1.4 2.1 1.1 4 2.4 5.8 3.9 0.5 0.4 0.8 1 1.2 1.5 0.1 0.2 0.1 0.5 0.1 0.7z"/>
					<path id="&lt;Path&gt;" class="s9" d="m362.4 413.5c0.2 0.1 0.5 0.1 0.7 0.2 0.9 0.6 1.6 1.5 2.1 2.5 1.4 2.4 2.4 4.9 3.2 7.5 0.1 0.4 0.1 0.8 0.1 1.1 0 0.7-0.4 1.2-1 1.5-0.5 0.2-1.3 0-1.7-0.4-0.3-0.2-0.5-0.5-0.7-0.8-1.3-2.4-2.3-5-3.1-7.5-0.4-1.2-0.5-2.5-0.1-3.7 0-0.2 0.3-0.3 0.5-0.4z"/>
					<path id="&lt;Compound Path&gt;" fill-rule="evenodd" class="s9" d="m378.9 386.9c0 1.2-0.1 2.2-0.4 3.2-0.6 1.5-2.4 2-3.7 1-0.9-0.7-1.4-1.6-1.8-2.7-0.6-1.5-0.7-3.1-0.8-4.7-0.1-0.9 0.3-1.7 1.1-2.2 0.8-0.6 1.8-0.5 2.7 0 1 0.5 1.6 1.2 2 2.1 0.6 1.1 1 2.3 0.9 3.3zm-2.4 1.9c0.4-1.4 0.4-2.8-0.5-4.1-0.3-0.5-0.7-0.6-1.2-0.6-0.7 1.1-0.5 2.3 0.1 3.4 0.3 0.6 0.6 1.3 1.6 1.3z"/>
					<path id="&lt;Compound Path&gt;" fill-rule="evenodd" class="s9" d="m767.5 458c1.7 0 3 1.6 2.7 3.3-0.2 0.7-0.5 1.4-0.9 2-1.5 1.5-3.2 2.7-5.2 3.3-1.8 0.5-3.5-0.8-3.3-2.9 0.5-3.5 3.3-5.6 6.7-5.7zm-3.9 6.3c0.1-0.1 0.3 0 0.4-0.1 1.3-0.6 2.5-1.4 3.5-2.5 0-0.1 0.1-0.2 0.1-0.3 0.2-0.3-0.1-0.8-0.4-0.9-2.3-0.5-4.3 1.7-4.1 3.4 0 0.1 0.3 0.2 0.5 0.4z"/>
					<path id="&lt;Compound Path&gt;" fill-rule="evenodd" class="s9" d="m401.5 341.3c0 0.6-0.5 1.3-1.3 1.7-0.8 0.4-1.7 0.3-2.5-0.1-0.9-0.5-1.5-1.3-2-2.2q-0.8-1.8-1.5-3.7c-0.3-0.9 0.1-2.2 0.9-2.7 0.8-0.5 1.6-0.5 2.5-0.1 0.1 0 0.2 0.1 0.3 0.1 1.9 1.6 3.2 3.5 3.6 5.9 0 0.2 0 0.5 0 1.1zm-2.3-0.9c0-0.2 0-0.4 0-0.6-0.3-1.1-0.8-2.1-1.6-2.9-0.2-0.2-0.6-0.2-1-0.3-0.1 0.3-0.3 0.7-0.2 0.9 0.3 1.1 0.8 2 1.6 2.9 0.1 0.1 0.4 0.2 0.6 0.3 0.1 0.1 0.3 0.1 0.3 0 0.1 0 0.2-0.1 0.3-0.3z"/>
					<path id="&lt;Path&gt;" class="s9" d="m726.5 536.8c0.5 0.1 1 0.2 1.4 0.4 3.3 2 6.2 4.8 8.2 7.9 0 0.1 0.3 0.1 0.3 0.1 0.2-0.2 0.2-0.3-0.1-0.3-2.9-0.4-3.8-0.7-6.1-2.4-1.2-0.8-2.4-1.8-3.5-2.8-0.4-0.3-0.7-0.7-1-1.1-0.2-0.3-0.2-0.7 0-1 0.2-0.3 0.5-0.5 0.8-0.8z"/>
					<path id="&lt;Path&gt;" class="s9" d="m657.4 327.7c0.1 1.4-0.4 2.7-0.7 4-0.3 1.2-0.8 2.3-1.2 3.5-0.3 0.7-1.2 1.1-1.8 1-0.8-0.2-1.5-1.1-1.4-2 0.6-2.8 1.3-5.5 3.1-7.8 0.2-0.2 0.4-0.4 0.6-0.5 0.2-0.1 0.5-0.2 0.7-0.1 0.2 0 0.3 0.3 0.5 0.5 0 0 0.1 0.2 0.1 0.3q0.1 0.5 0.1 1.1z"/>
					<path id="&lt;Path&gt;" class="s9" d="m273.7 614.2c-0.3-0.1-0.5-0.1-0.6-0.1-0.4 0-0.8-0.8-0.5-1.1 0.2-0.4 0.5-0.9 0.9-1.2 2.1-1.9 4.7-3.1 7.3-4.3 0.4-0.2 0.9 0 1.4 0.3 0.4 0.4 0.6 1.2 0.3 1.7-0.2 0.3-0.5 0.6-0.7 0.8-1.9 1.5-3.9 2.6-6.1 3.5-0.7 0.2-1.5 0.3-2 0.4z"/>
					<path id="&lt;Path&gt;" class="s9" d="m695.3 570.7c0.2 0 0.6 0.1 0.9 0.1 0.4 0.1 0.7 0.4 0.8 0.8 0.1 0.4-0.1 0.8-0.4 1-0.5 0.4-1.1 0.9-1.8 1.2-1.6 0.7-3.3 0.9-5 1.3-0.3 0-0.5 0-0.8-0.1-0.6-0.1-1.1-0.5-1.3-1.2-0.2-0.4 0.1-1.3 0.6-1.6 0.2-0.1 0.4-0.3 0.6-0.4 2.1-0.5 4.1-1.2 6.4-1.1z"/>
					<path id="&lt;Path&gt;" class="s9" d="m760.6 422.6c-1.4 0-2.7 0-4.1 0-0.3 0-0.7-0.1-1-0.3-0.2-0.1-0.3-0.4-0.3-0.6 0-0.2 0.1-0.4 0.2-0.6 0.1-0.1 0.2-0.2 0.3-0.2 1.9-0.4 8.8-0.3 11 0.1 0.3 0.1 0.4 0.3 0.3 0.6-0.1 0.1-0.1 0.3-0.2 0.3-0.4 0.1-0.7 0.3-1.1 0.3q-2.5 0.2-5.1 0.3 0 0.1 0 0.1z"/>
					<path id="&lt;Path&gt;" class="s9" d="m688.3 340.2c-0.5 0-1-0.2-1.2-0.6-0.3-0.5-0.3-1.1 0-1.4 2.1-2 4.4-3.6 7.2-4.6 0.2-0.1 0.5-0.1 0.7 0 0.1 0.1 0.4 0.4 0.3 0.5 0 0.4-0.1 0.8-0.3 1.1-1.6 2.1-3.8 3.5-6 4.9-0.2 0.1-0.5 0.1-0.7 0.1z"/>
					<path id="&lt;Path&gt;" class="s9" d="m751.5 397.8c0 0.3 0 0.6-0.1 0.7-1.5 2-3.2 3.8-5.7 4.6-0.1 0.1-0.4-0.1-0.6-0.2 0-0.1-0.1-0.3 0-0.4 0.3-0.6 0.5-1.3 1-1.9 1-1.2 2.2-2.4 3.3-3.5 0-0.1 0.2-0.2 0.3-0.2 0.3-0.1 0.7-0.2 1-0.1 0.5 0 0.9 0.6 0.8 1z"/>
					<path id="&lt;Path&gt;" class="s9" d="m750.9 527.3c-0.4 0.1-0.9 0.4-1.3 0.4-1.9 0.3-3.7 0-5.5-0.4-0.4-0.1-0.8-0.6-0.8-1.1-0.1-0.4 0.2-0.8 0.5-0.9 1.5-0.5 2.9-0.1 4.4 0.2 0.9 0.3 1.9 0.4 2.5 1.3 0.1 0.1 0.1 0.2 0.2 0.5z"/>
					<path id="&lt;Path&gt;" class="s9" d="m458.1 598.6c0.2 0.6-0.1 1-0.3 1.4-1.1 1.9-2.3 3.8-3.4 5.8-1.2 2-2.2 4.1-3.6 6-1.4 1.9-3.1 3.6-4.7 5.4-3 3.6-6.1 7.2-9.1 10.9q-4.6 5.6-8.3 11.9c-3.5 5.6-6.1 11.7-7.5 18.2-1.3 6.5-1.5 13-0.8 19.6 0.8 6.6 2.5 13 4.5 19.3 1.8 5.4 3.6 10.8 5.4 16.2 0.5 1.3 1 2.6 1 4 0.1 0.5-0.1 1-0.4 0.9-0.2-0.1-0.5-0.2-0.6-0.3-0.6-1-1.3-1.9-1.8-2.9-4.2-8.4-7.9-17.1-10.3-26.3-1.6-6.2-2.5-12.4-2.5-18.8 0-10.5 2.6-20.4 7.7-29.6 2.6-4.7 5.7-9.1 9-13.3 7.4-9.3 15.3-18.4 23.8-26.8q0.8-0.8 1.6-1.5c0.1-0.1 0.2-0.1 0.3-0.1z"/>
					<path id="&lt;Path&gt;" class="s9" d="m532.8 779.1c-3.4-0.1-6.2-0.6-9-1.1-9.8-1.8-19.3-4.7-28.6-8.1-10.5-3.7-20.7-8-30.7-12.5-5.7-2.5-11.4-4.9-17.1-7.4q-2.2-1-4.4-2.1c-0.5-0.2-1-0.6-1.5-1.1-0.2-0.2-0.3-0.6-0.4-1 0-0.3 0.6-0.9 1-0.9q1.7-0.3 3.3 0.2c1.7 0.6 3.4 1.1 5 1.7 5.7 2.4 11.4 4.9 17.1 7.4 11.7 5.2 23.5 10 35.7 14 4 1.3 8 2.6 12.1 3.7q2.5 0.6 4.9 1.7c3.3 1.4 6.7 2.7 10 4 0.8 0.3 1.6 0.6 2.6 1.5z"/>
					<path id="&lt;Path&gt;" class="s9" d="m428.7 746.9c-0.4 0.4-0.7 0.8-1 1.1-2.5 2.1-5 4.1-7.6 6.1-0.8 0.6-1.6 1.1-2.5 1.6-7.5 3.6-14.9 7.3-22.6 10.4-6.1 2.5-12.3 4.7-18.8 6-3.4 0.7-6.8 1.3-10.2 1.3 0.1-0.1 0.1-0.5 0.3-0.6q6.3-2.8 12.6-5.5 0.7-0.3 1.4-0.5c8.1-2.3 15.9-5.7 23.5-9.2 4.5-2.1 9-4.3 13.5-6.4q4.4-2 8.9-3.9c0.7-0.3 1.5-0.8 2.5-0.4z"/>
					<path id="&lt;Path&gt;" class="s9" d="m445.7 778.8c0.7 0.1 0.9 0.7 1.2 1.2q1.5 3.4 3.1 6.8c0.2 0.4 0.4 0.9 0.6 1.3 2.5 4.9 4.1 10.2 5.8 15.4 2.6 8.1 5.4 16.2 8 24.4 1.4 4.3 2.7 8.8 4.1 13.1 0.2 0.9 0.4 1.7 0.5 2.6 0.1 0.4-0.1 1-0.2 1.4-0.1 0.1-0.5 0.3-0.6 0.2-0.9-0.4-1.3-1.2-1.6-2-0.8-1.9-1.7-3.9-2.4-5.9-5.6-16-11.2-32.1-16.1-48.4-0.7-2.1-1.3-4.3-1.8-6.4-0.3-1.2-0.4-2.5-0.6-3.7z"/>
					<path id="&lt;Compound Path&gt;" fill-rule="evenodd" class="s9" d="m473.9 701.1c-0.3 1.1-0.6 2.2-1 3.2-0.3 1.1-1.7 1.6-2.7 1.3q-1.5-0.4-2.7-1.3c-1.6-1.2-3.1-2.5-4.6-3.8-1.9-1.7-4-3.3-6.2-4.7-1.7-1-3.3-2.2-4.9-3.4-1.2-0.9-1.5-2.2-1.2-3.7 0.1-0.3 0.2-0.7 0.4-1 1.5-2 3.3-3.3 5.9-3.6 1 0 1.9 0.1 2.8 0.7 3.9 2.6 7.7 5.5 10.9 9 0.8 0.9 1.5 1.9 2.1 3 0.8 1.3 1.2 2.8 1.2 4.3zm-3.3 0c-0.1-0.3-0.1-0.7-0.1-1q-0.4-1.7-1.4-3.1c-1.2-1.6-2.6-3-4.1-4.3-1.8-1.4-3.6-2.7-5.3-4.2-0.8-0.6-1.8-0.8-2.8-0.8-1 0-1.9 0.5-2.5 1.4-0.1 0.2-0.2 0.5-0.1 0.7 0.3 0.4 0.7 0.7 1.1 1 3.8 2.8 7.5 5.7 11.1 8.7q1.1 0.9 2.1 1.7c0.3 0.2 0.6 0.4 0.9 0.6 0.2 0.1 0.5 0.1 0.7 0 0.2-0.1 0.2-0.4 0.4-0.7z"/>
					<path id="&lt;Path&gt;" class="s9" d="m428.1 778.6c0.3 0.5 0.6 1 0.8 1.5 1.2 3.5 2.4 7 3.6 10.5q0.8 2.1 1 4.4 0.9 9.2 1.9 18.5c0.2 2.6 0.3 5.2-0.2 7.8 0 0.2-0.3 0.3-0.4 0.5-0.2-0.2-0.4-0.3-0.5-0.5q-1.5-3.8-2.2-7.9c-0.6-3.9-1.1-7.8-1.5-11.8-0.8-5.9-1.4-11.8-2.1-17.7q-0.4-2.6-0.4-5.3z"/>
					<path id="&lt;Compound Path&gt;" fill-rule="evenodd" class="s9" d="m421.9 608.7c0-2-0.1-4 0-5.9 0-0.8 0.2-1.5 0.5-2.2 1.2-2.4 4.2-2.7 5.8-0.6 0.9 1.1 1.4 2.3 1.6 3.7 0.1 1 0.3 2 0.2 3 0 2.4-0.2 4.9-0.4 7.4-0.1 1.4-0.5 2.9-1.1 4.3-0.4 0.8-0.9 1.4-1.6 2-0.7 0.4-1.4 0.6-2.1 0.5-0.7 0-1.2-0.4-1.6-0.9-0.6-0.9-0.9-2-1-3.1 0-0.8-0.2-1.5-0.2-2.3q-0.1-2.9-0.2-5.9 0 0 0.1 0zm2.5 1.6q0 0 0 0c0 1.6-0.1 3.2 0 4.8 0 0.9 0.2 1.7 0.3 2.6 0 0.1 0.3 0.3 0.5 0.4 0.2 0 0.5-0.1 0.7-0.2 0.3-0.4 0.6-0.8 0.7-1.3 1.2-4.1 1.3-8.3 0.9-12.5-0.1-0.2-0.1-0.5-0.2-0.7q-0.5-0.7-1.1-1.4c-0.3-0.4-1-0.2-1.3 0.2-0.4 0.7-0.5 1.4-0.5 2.1q0 3 0 6z"/>
					<path id="&lt;Compound Path&gt;" fill-rule="evenodd" class="s9" d="m379 728.3c0 0 0.1-0.6 0.2-1.2 0.8-3 1.8-6 3.1-8.8q0.6-1.2 1.3-2.3c0.9-1.3 2.1-2 3.7-2.2 1.3-0.1 2.5 0.1 3.6 0.7 1.3 0.7 1.8 1.6 1.4 3.1-0.1 0.9-0.5 1.7-0.9 2.5-1.8 3.7-3.9 7.2-6.1 10.7-0.6 0.9-1.2 1.8-2.2 2.4-0.5 0.3-1.3 0.4-1.8 0q-0.5-0.4-1.1-0.9c-1-0.9-1.4-2.1-1.2-4zm2.9 1.8c0.2-0.1 0.6-0.3 0.8-0.5q2.7-4.4 5.4-8.9 0.6-1 1-2c0.2-0.3 0.3-0.7 0.4-1 0.1-0.4-0.3-1.1-0.7-1.2-1.2-0.2-2.2 0.1-3 1.1-0.4 0.4-0.7 1-1 1.5-1.6 3.1-2.7 6.4-3.4 9.8-0.1 0.3 0 0.7 0.1 1.1 0 0 0.2 0.1 0.4 0.1z"/>
					<path id="&lt;Compound Path&gt;" fill-rule="evenodd" class="s9" d="m394.5 614.4c-0.1-1.1 0.2-2.2 0.7-3.2 1.1-2 2.6-3.6 4.4-5 1.5-1.2 3.2-2.3 4.8-3.5 0.8-0.6 1.8-0.7 2.8-0.3 0.6 0.2 1.1 0.5 1.6 0.9 0.6 0.5 0.9 1.2 1 1.9q0 1.4-0.6 2.5c-0.6 1.1-1.4 2.1-2.4 2.9-2 1.6-3.9 3.3-5.9 5-0.6 0.4-1.3 0.8-1.9 1.2-0.3 0.2-0.7 0.3-1 0.3-1.7 0.4-3.4-0.2-3.5-2.7zm3-0.5c0.5 0.3 0.8 0.1 1.1-0.1 2.8-1.8 5.2-4.1 7.6-6.4 0.4-0.4 0.6-0.9 0.8-1.3 0.2-0.4-0.1-1.1-0.5-1.2-0.3-0.1-0.8-0.2-1 0-2.3 1.7-4.5 3.5-6.4 5.6-0.7 0.7-1.3 1.5-1.6 2.5 0 0.2-0.1 0.5-0.2 0.7 0 0.1 0.2 0.2 0.2 0.2z"/>
					<path id="&lt;Compound Path&gt;" fill-rule="evenodd" class="s9" d="m403.9 631.3c0.8 0 1.6 0.3 2.3 0.9 1 0.9 1.2 2.1 0.8 3.3q-0.6 1.4-1.7 2.4-1.7 1.6-3.8 2.4c-1.8 0.7-3.6 1.5-5.3 2.6-0.5 0.3-1.1 0.5-1.7 0.8-1.5 0.5-3.3-0.5-3.7-2.1-0.3-1.7 0-3.3 1.4-4.4 0.7-0.6 1.5-1.2 2.4-1.6 1-0.5 2.1-0.9 3.1-1.3 1.1-0.3 2-0.8 2.8-1.7 0.8-1.1 2-1.4 3.4-1.3zm0.6 3.3c-0.3-0.2-0.5-0.5-0.8-0.6-0.1-0.1-0.5 0-0.7 0.1q-3.1 1.5-6.3 3c-1.2 0.5-2.2 1.2-3 2.2-0.2 0.3-0.3 0.7-0.4 1-0.1 0.3 0.3 0.8 0.6 0.8 0.2-0.1 0.5 0 0.7-0.1 2.2-1.4 4.6-2.5 6.9-3.5 1.1-0.5 2-1.2 2.6-2.1 0.2-0.2 0.2-0.4 0.4-0.8z"/>
					<path id="&lt;Compound Path&gt;" fill-rule="evenodd" class="s9" d="m559.1 622.7c-1.9-0.1-3.5-0.4-5-1.1-2.7-1.5-5.2-3.4-7.3-5.6-0.5-0.5-0.9-1-1.1-1.6-0.2-0.5-0.2-1.2-0.2-1.8 0-0.7 0.7-1.4 1.4-1.5 1-0.2 2-0.1 2.9 0.2q0.7 0.3 1.4 0.6 4.8 2.5 9.6 5 0.3 0.2 0.6 0.4c0.9 0.6 1.4 1.9 1.2 2.9-0.3 1.1-1 1.7-1.9 2.1-0.6 0.3-1.3 0.3-1.6 0.4zm-0.9-2.5c0.4 0 0.5 0 0.6 0 0.3-0.1 0.7-0.2 0.7-0.3 0-0.3-0.1-0.8-0.3-1q-4.6-2.7-9.2-5.3c-0.3-0.2-0.7-0.2-1.1-0.2-0.1 0-0.2 0.1-0.3 0.2-0.1 0-0.1 0.2-0.1 0.2 0.2 0.4 0.3 0.7 0.5 1 2.1 2.1 4.6 3.7 7.3 5 0.7 0.3 1.4 0.3 1.9 0.4z"/>
					<path id="&lt;Compound Path&gt;" fill-rule="evenodd" class="s9" d="m495.3 661.5c0-1.1 0-2.3 0.1-3.4 0-0.7 0.2-1.4 0.5-2.1 1-2.4 3.5-2.3 4.9-1.1 0.7 0.6 1.1 1.3 1.5 2.1 0.6 1.6 0.7 3.2 0.6 4.8-0.2 1.9-0.6 3.7-1.5 5.4q-0.5 1-1.5 1.6c-1.4 0.9-3.1 0.5-3.7-1.1q-0.5-1.4-0.6-2.9c-0.2-1.1-0.2-2.2-0.2-3.3q0 0-0.1 0zm2.6 4.4c0.2 0.1 0.4 0.1 0.5 0.1 0.2-0.1 0.5-0.1 0.6-0.3 1.4-2.5 1.5-5.2 0.6-7.9-0.1-0.3-0.4-0.6-0.6-0.8-0.2-0.2-0.9-0.2-1 0.1-0.1 0.4-0.3 0.9-0.3 1.4 0 2.5 0.1 5 0.2 7.4z"/>
					<path id="&lt;Compound Path&gt;" fill-rule="evenodd" class="s9" d="m489.5 646.6c-1.7 0.1-2.8-1.1-2.5-2.4 0.1-0.9 0.4-1.7 1-2.4 0.6-0.6 1.2-1.2 1.9-1.7 1.8-1.2 3.7-2.1 5.3-3.5 0.3-0.2 0.6-0.3 1-0.5 1.2-0.4 2.5-0.1 3.3 1 0.7 0.8 0.6 1.8 0.2 2.8-0.3 0.6-0.7 1.3-1.2 1.8-0.5 0.6-1.1 1.1-1.7 1.5-1.5 0.9-3 1.7-4.5 2.6-1 0.6-2.1 0.7-2.8 0.8zm0.3-2.8c0.5 0 0.9 0.1 1.1 0 1.7-1 3.4-1.9 5.1-3 0.6-0.4 1-1 1.5-1.5 0-0.1 0-0.3 0-0.4-0.2-0.1-0.5-0.3-0.6-0.3-2.3 1.2-4.5 2.5-6.4 4.2-0.3 0.2-0.4 0.6-0.7 1z"/>
					<path id="&lt;Compound Path&gt;" fill-rule="evenodd" class="s9" d="m538.8 554.5c0.5 0 0.9 0.3 1.3 0.6 0.5 0.8 0.8 1.6 0.6 2.5-0.1 0.7-0.2 1.5-0.6 2.1-1.4 2.2-3.2 4.1-5.6 5.3-0.4 0.2-0.9 0.3-1.4 0.4-0.6 0.1-1.2 0-1.7-0.5-0.4-0.4-0.7-1-0.5-1.6 0.3-1.2 0.8-2.4 1.7-3.3q2.7-2.7 5.5-5.4c0.2-0.1 0.5-0.1 0.7-0.1zm-0.5 3.7q0-0.3 0-0.7c-0.2 0.1-0.5 0-0.6 0.1-1.5 1.1-2.8 2.4-4 3.8-0.3 0.3-0.7 0.7-0.6 1.2 0.1 0.4 1 0.2 1.6-0.3 1.5-1.1 2.8-2.4 3.6-4.1z"/>
					<path id="&lt;Compound Path&gt;" fill-rule="evenodd" class="s9" d="m544.8 599.9c0.6 0 1.3 0 1.9 0 1.1 0.2 2.1 0.7 2.8 1.6 0.6 0.8 0.7 1.6 0.4 2.5-0.2 0.6-0.6 1.1-1.2 1.2-3.2 0.5-6.2 0.3-9.1-1.1-0.3-0.2-0.6-0.5-0.9-0.8-0.5-0.5-0.4-1.8 0.4-2.2 0.6-0.4 1.3-0.7 2-0.8 1.2-0.3 2.5-0.4 3.7-0.5q0 0.1 0 0.1zm-3.3 2.6c1.2 0.8 2.6 1.1 4.1 1.4 0.2 0.1 0.5 0.1 0.7 0.1 0.4-0.1 1-0.1 1.2-0.7 0.1-0.3-0.2-0.8-0.7-1-1.6-0.6-3.1-1-4.7-0.6q-0.6 0.1-0.6 0.8z"/>
					<path id="&lt;Compound Path&gt;" fill-rule="evenodd" class="s9" d="m536.8 574c0.2 0 0.5 0 0.7 0.1 1.4 0.7 2.1 2.3 1.6 3.7-0.6 1.8-1.6 3.3-2.9 4.7-0.4 0.3-0.9 0.5-1.4 0.3-0.6-0.1-1.1-0.6-1.2-1.2-0.4-1.7-0.1-3.5 0.3-5.1 0.1-0.6 0.5-1.1 1-1.6 0.3-0.3 0.7-0.6 1.2-0.8 0.2-0.1 0.5-0.1 0.7-0.1zm-1.4 6.1c0.1 0 0.4 0 0.5-0.1 0.8-0.7 1.4-1.6 1.6-2.7 0-0.3 0.1-0.5 0-0.7-0.1-0.2-0.3-0.4-0.5-0.5-0.2 0-0.5 0.2-0.7 0.3 0 0-0.1 0.1-0.1 0.3q-0.5 1.3-0.8 2.7c-0.1 0.2 0 0.5 0 0.7z"/>
					<path id="&lt;Compound Path&gt;" fill-rule="evenodd" class="s9" d="m523 564.9c0 0.8-0.4 1.5-0.9 2-1.5 1.6-3.5 2.2-5.7 2.4-0.8 0-1.6-0.9-1.5-1.8 0-0.3 0.1-0.7 0.3-1 1.3-2.3 3.9-3.8 6.5-3.2 0.6 0.2 1.3 1 1.3 1.6zm-5.4 2c1.2-0.3 2.1-0.5 2.6-1.2q0.1-0.1 0.2-0.3c-0.2-0.1-0.4-0.3-0.6-0.2-0.7 0.4-1.6 0.6-2.1 1.4-0.1 0.2-0.1 0.3-0.1 0.3z"/>
					<path id="&lt;Compound Path&gt;" fill-rule="evenodd" class="s9" d="m546.5 555.4c0-0.1-0.1 0.4-0.2 0.9-0.1 0.5-0.3 0.9-0.9 1-0.5 0.2-0.9 0.1-1.3-0.3-0.3-0.2-0.6-0.5-0.7-0.8q-0.8-2.3-1.4-4.6c-0.2-0.6-0.1-1.2 0.2-1.8 0.3-0.7 1.5-1.1 2.2-0.6 1 0.8 1.6 1.8 1.8 3.1 0.2 0.8 0.2 1.7 0.3 3.1zm-2.6-3.9c0.1 1 0.1 2.1 0.9 3 0.1 0.1 0.3 0.2 0.3 0.2 0.1-0.1 0.3-0.3 0.4-0.5 0.1-1.2-0.3-2.2-1-3.1-0.1 0-0.3-0.1-0.3 0-0.1 0-0.1 0.2-0.3 0.4z"/>
					<path id="&lt;Path&gt;" class="s9" d="m547.7 568.8c0-1.5 0.7-2.8 1.4-4 0.4-0.7 1.4-0.9 2-0.7 0.7 0.2 1.2 1 1.1 1.7 0 0.1 0.1 0.3 0 0.4-0.4 1.8-1 3.5-2.3 4.9-0.4 0.4-1.2 0.3-1.6-0.2-0.5-0.7-0.6-1.2-0.6-2.1z"/>
					<path id="&lt;Path&gt;" class="s9" d="m499.5 646.6c-0.1 0.2-0.1 0.5-0.2 0.7-0.5 0.9-1.3 1.4-2.4 1.5-0.3 0-0.7-0.2-0.9-0.5-0.3-0.2-0.2-0.6-0.1-1 0.3-0.7 0.8-1.2 1.4-1.6 0.4-0.3 0.9-0.3 1.4-0.2 0.4 0.1 0.8 0.7 0.8 1.1z"/>
					<path id="&lt;Path&gt;" class="s9" d="m554.4 629.2c0.1 0.7-0.8 1.4-1.4 1.3-1-0.3-1.8-0.8-2.2-1.8-0.2-0.3 0-0.9 0.3-1.3 0.3-0.4 0.8-0.6 1.3-0.4 0.8 0.2 1.5 0.7 1.9 1.5 0.1 0.3 0.1 0.5 0.1 0.7z"/>
					<path id="&lt;Path&gt;" class="s9" d="m539 543.6c-0.1 0.2-0.1 0.6-0.2 1-0.1 0.4-0.6 0.8-1 0.8-0.6 0-0.9-0.3-1.1-0.8-0.4-0.7-0.3-1.4-0.2-2.1 0.1-0.4 0.7-0.8 1.1-0.8 0.5 0 1 0.3 1.1 0.7q0.1 0.2 0.1 0.4c0.1 0.2 0.1 0.5 0.2 0.8z"/>
					<path id="&lt;Path&gt;" class="s9" d="m563.4 605.9c0.3 0 0.4 0 0.5 0.1 0.3 0.2 0.7 0.3 0.8 0.6 0.1 0.3 0.1 0.8 0 1-0.9 1.1-1.9 1.5-3.3 1.1-0.3 0-0.6-0.4-0.7-0.7-0.1-0.3 0.1-0.7 0.3-0.9 0.6-0.8 1.5-1.1 2.4-1.2z"/>
					<path id="&lt;Path&gt;" class="s9" d="m545.5 563.5c-0.7 0-1.1-0.5-0.9-1.1 0.3-0.9 0.9-1.4 1.8-1.6 0.4-0.1 1 0.1 1.2 0.5 0.1 0.3 0.1 0.8 0 1.1-0.4 0.8-1.2 1.1-2.1 1.1z"/>
					<path id="&lt;Path&gt;" class="s9" d="m487.7 654.8c0.7 0 1.2 0.5 1.2 1.1 0.1 0.9-0.5 1.5-1.2 1.5-0.7 0-1.2-0.4-1.2-1.1 0-0.8 0.5-1.4 1.2-1.5z"/>
					<path id="&lt;Path&gt;" class="s9" d="m560 556.1c0 0.5-0.6 0.8-1.1 0.8-0.8-0.1-1.4-0.8-1.3-1.5 0-0.6 0.7-1.1 1.3-0.9 0.8 0.1 1.2 0.8 1.1 1.6z"/>
					<path id="&lt;Path&gt;" class="s9" d="m556.3 642.1c0.1-0.3 0.7-0.8 1.1-0.8 0.7 0 1.3 0.8 1.1 1.5-0.2 0.5-0.7 0.8-1.2 0.7-0.6-0.1-1.1-0.8-1-1.4z"/>
					<path id="&lt;Path&gt;" class="s9" d="m556.8 563.4c-0.2-0.2-0.6-0.3-0.8-0.6-0.2-0.4-0.2-1 0.1-1.3 0.2-0.2 0.8-0.2 1-0.1 0.4 0.5 0.6 1.1 0.4 1.7-0.1 0.1-0.4 0.2-0.7 0.3z"/>
					<path id="&lt;Path&gt;" class="s9" d="m506.6 650c0.6-0.1 1 0.2 1 0.7 0 0.6-0.3 1-0.8 0.9-0.5 0-0.8-0.4-0.8-0.9-0.1-0.4 0.2-0.6 0.6-0.7z"/>
					<path id="&lt;Path&gt;" class="s9" d="m467.9 367.2c0 0.1 0.1 0.3 0 0.4-0.7 1.9-1.9 3.7-3.2 5.4-0.5 0.5-1.1 1-1.7 1.4-2.3 1.3-4.6 2.6-6.9 3.7-2.3 1.2-4.9 1.9-7.5 2.2-3.4 0.4-6.8 1.3-10.2 1.8-6.2 1-12.1 3-17.9 5.2-0.6 0.3-1.3 0.6-2.1 0.5-0.5-0.1-1.1-0.9-0.9-1.4 0.3-0.4 0.5-0.9 0.9-1.1 1.4-0.8 2.8-1.6 4.3-2.2 4.6-1.9 9.4-3.4 14.3-4.2 4.3-0.6 8.5-1.5 12.8-2.4 2.1-0.4 4-1.2 6-2.1 4.1-2 8-4.5 11.5-7.4 0.1-0.1 0.3 0 0.4-0.1 0.2 0 0.3 0.1 0.2 0.3z"/>
					<path id="&lt;Path&gt;" class="s9" d="m460.1 357.9c0.5 0.1 1 0.2 1.4 0.4 0.7 0.2 1 1.4 0.4 1.8-0.3 0.3-0.6 0.6-0.9 0.7-5.1 1.1-10 2.9-15.1 4q-2.4 0.5-4.7 1.3c-3.2 0.9-6.1 2.6-8.8 4.6-2.7 2-5.4 4-8.1 6-0.6 0.5-1.2 0.8-1.9 1.1-0.4 0.2-0.7 0-1-0.3-0.2-0.3-0.4-0.6-0.2-1 0.2-0.4 0.4-0.9 0.7-1.2 3.9-3.8 7.9-7.2 12.6-10 2.9-1.7 6-2.8 9.3-3.6 2.9-0.6 5.8-1.3 8.7-2.2 1.6-0.5 3.3-0.9 5-1.3 0.9-0.2 1.7-0.2 2.6-0.3z"/>
					<path id="&lt;Path&gt;" class="s9" d="m501.1 344c-3.5-0.7-6.9-1.9-10.1-3.7-0.8-0.4-1.5-0.9-2-1.6-0.3-0.5-0.3-1.3 0.1-1.8q0.5-0.6 1.3-0.6 0.5 0 1 0.1c0.5 0.2 1 0.4 1.4 0.6 4.5 1.9 9.2 3.1 14 3.9 6.6 1.2 13.2 1.8 20 1.9 1.7 0.1 3.4 0.4 5.1 0.5 2.7 0.1 5.3 0.2 7.9 0.3 0.1 0 0.2 0.1 0.2 0.2 0.2 0.2 0.1 0.5-0.2 0.6-0.9 0.3-1.9 0.7-2.8 0.9-1.5 0.2-3 0.5-4.4 0.6-5.2 0.4-10.4 0.8-15.7 0.4-5.3-0.4-10.6-1.1-15.8-2.3z"/>
					<path id="&lt;Path&gt;" class="s9" d="m518.4 328.6c-7.3 0.1-13.1 0.3-18.8 0.4-2.6 0-5.2-0.2-7.8-0.3-0.4 0-0.7-0.1-0.9-0.5 0-0.1-0.1-0.3 0-0.4 0.1-0.1 0.3-0.3 0.6-0.4 2.7-0.8 5.5-1.2 8.4-1.5 7.2-0.9 14.4-0.9 21.6-0.9 4.4 0.1 8.7 0.3 13 0.9 2.6 0.3 5.2 0.8 7.6 1.8 0.3 0.1 0.4 0.3 0.2 0.6 0 0.1-0.1 0.2-0.2 0.3-0.5 0.1-1 0.3-1.4 0.3-2.9 0-5.8 0.1-8.6 0.1-5.1-0.1-10.2-0.3-13.7-0.4z"/>
					<path id="&lt;Path&gt;" class="s9" d="m514.7 334.4c0.2-0.3 0.5-0.7 0.8-0.7 1.9-0.5 3.8-0.9 5.8-0.9 6.3 0.2 12.5 0.4 18.7 0.6 0.6 0 1.2 0.1 1.8 0.4 0.2 0.1 0.5 0.5 0.5 0.8 0.1 0.3-0.2 0.8-0.4 0.9-0.4 0.3-0.9 0.5-1.4 0.6q-1.3 0.1-2.6 0.2-9.1 0.1-18.2-0.8c-1.5-0.1-3-0.5-4.4-0.7-0.2-0.1-0.4-0.3-0.6-0.4z"/>
					<path id="&lt;Path&gt;" class="s9" d="m359.7 460.2c-0.3-0.2-0.5-0.3-0.7-0.5-0.2-0.2-0.1-0.8 0-1 0.4-0.4 0.7-0.8 1.1-1.1 1-0.7 2.1-1.3 3.2-1.9q3-1.5 6-2.8c8.1-3.7 16-7.5 23.9-11.4q1-0.5 2.1-0.9c0.5-0.2 1.2 0 1.5 0.6 0.3 0.5 0.2 1.4-0.2 1.7-0.4 0.3-0.7 0.7-1.2 0.9q-1.6 0.9-3.3 1.7-10.2 4.9-20.5 9.7c-2.2 1.1-4.5 2.2-6.7 3.2q-2.1 0.9-4.2 1.7c-0.3 0.1-0.7 0-1 0.1z"/>
					<path id="&lt;Path&gt;" class="s9" d="m390.9 455.1c-0.7 1.3-1.5 2.4-2.5 3.2-5.2 4.6-11.2 7.5-17.9 8.6-4 0.7-8.2 0.6-12.2 0-0.2 0-0.3 0-0.4-0.1-0.2-0.2-0.5-0.5-0.8-0.9 1.6-0.3 3-0.5 4.4-0.8 1.4-0.3 2.7-0.7 4-1 0.5-0.1 1-0.1 1.5-0.1 4.7-0.3 9-1.8 13.1-3.9 1.7-0.9 3.5-2 5.2-2.9 1.4-0.7 2.9-1.3 4.4-2 0.3-0.1 0.7-0.1 1.2-0.1z"/>
					<path id="&lt;Path&gt;" class="s9" d="m427.4 539.5c0 0.1 0.2 0.2 0.2 0.3-0.1 2.3-0.9 4.3-2.4 6-4 4.7-8.6 8.6-14.3 11-2.7 1.2-5.4 2.4-8.1 3.5-0.3-0.2-0.2-0.1 0-0.2 2.3-1.9 8.2-6.2 10.2-7.4 2.2-1.3 4.3-2.9 6.2-4.7 2.6-2.6 5.3-5.2 7.6-8.1 0.1-0.2 0.4-0.3 0.6-0.4z"/>
					<path id="&lt;Path&gt;" class="s9" d="m621.5 345.7c-0.4 0.3-0.6 0.7-1 1-1 0.7-2.2 1.1-3.4 1.4-3.5 0.8-7 1.8-10.6 2.1-3 0.2-5.9 0.3-8.9-0.1-4-0.5-7.9-1.1-11.8-1.5-4.1-0.4-8.2-0.6-12.3-0.9-1.2-0.1-2.5-0.1-3.7-0.2-0.5 0-0.9-0.3-1.3-0.6-0.6-0.3-0.6-1.2-0.1-1.5 0.3-0.3 0.6-0.5 0.9-0.6q0.9-0.2 1.8-0.2c3.8-0.1 7.5 0 11.2 0.4 4.4 0.5 8.9 0.9 13.3 1.4 4.7 0.5 9.4 0.5 14.1-0.1 2.1-0.2 4.2-0.3 6.3-0.8 1.2-0.4 2.4-0.4 3.7-0.4 0.6-0.1 1.2 0 1.8 0.6z"/>
					<path id="&lt;Path&gt;" class="s9" d="m591.2 334.4c4.3 0.2 9.4 0.5 14.5 1.3 1.3 0.2 2.6 0.6 4 0.9 0.4 0.2 0.8 0.5 1.2 0.8 0 0.1 0.1 0.3 0.1 0.4-0.1 0.2-0.2 0.4-0.4 0.5-0.3 0.2-0.7 0.3-1.1 0.3-1.4-0.1-2.7-0.1-4.1-0.2-3.2-0.3-6.4-0.7-9.6-1-4.6-0.4-9.2-0.3-13.8-0.1-1.6 0.1-3.2 0.2-4.9 0.3-0.3 0-0.7-0.2-1-0.4-0.2-0.1-0.5-0.3-0.5-0.5 0.1-0.3 0.2-0.8 0.5-0.9 0.9-0.4 1.8-0.7 2.8-0.8 3.8-0.4 7.7-0.8 12.3-0.6z"/>
					<path id="&lt;Path&gt;" class="s9" d="m600 357c-4.4-0.1-8.7-0.7-13-1.4-3.6-0.6-7.1-1.3-10.6-2-1.2-0.3-2.4-0.7-3.6-1-0.1-0.1-0.2-0.2-0.2-0.3-0.1-0.3-0.2-0.7-0.2-1 0-0.2 0.3-0.4 0.5-0.5 0.9-0.4 1.9-0.2 2.9 0q4 0.7 8 1.6 6.3 1.3 12.6 3.1c1.3 0.4 2.5 0.9 3.6 1.5z"/>
					<path id="&lt;Path&gt;" class="s9" d="m465.3 498.1c0.1 0.1 0.2 0.3 0.1 0.4-0.2 2-1 3.8-2.5 5.2q-2.6 2.6-5.6 4.8c-1 0.7-1.9 1.2-3 1.5-0.1 0-0.3-0.1-0.3-0.2-0.1-0.2-0.2-0.5-0.1-0.6 0.7-0.9 1.4-1.7 2.2-2.5 2.9-2.7 5.9-5.4 8.6-8.3 0.1-0.2 0.4-0.2 0.6-0.3z"/>
					<path id="&lt;Path&gt;" class="s9" d="m462.1 484.7c1.3 3 1.4 5.8 1.2 8.6q0 0.4-0.1 0.7c-0.9 3.2-2.4 5.9-5.1 8-0.1 0-0.2 0.1-0.3 0-0.3-0.1-0.4-0.3-0.2-0.6q0.3-0.6 0.7-1.3 1.4-2.6 2.7-5.2 1.1-2 1.1-4.3c0-1.8 0-3.7 0-5.9z"/>
					<path id="&lt;Path&gt;" class="s9" d="m478.1 588.4c-0.4 0-1-0.5-1-0.9 0-0.3-0.1-0.5 0-0.8 0.3-1 0.6-2.1 1.2-3.1 1.8-3.5 4.1-6.7 7-9.6q0.6-0.6 1.4-1.2c0.3-0.2 0.6-0.3 1-0.4 0.2-0.2 0.9 0 0.9 0.2 0.1 0.3 0.2 0.5 0.1 0.7-0.1 0.4-0.2 0.8-0.4 1q-1.1 1.3-2.2 2.6c-2.7 3.1-5.1 6.4-6.8 10.1-0.2 0.4-0.4 0.7-0.6 1-0.1 0.2-0.4 0.2-0.6 0.4z"/>
					<path id="&lt;Path&gt;" class="s9" d="m544.5 533.1c-0.3 0.3-0.5 0.6-0.8 0.8-0.4 0.3-0.9 0.2-1.4-0.1-0.4-0.4-1-0.7-1.3-1.2-0.9-1.1-1.6-2.1-2.6-3.1-0.6-0.5-0.8-1.3-0.4-2 0.1-0.2 0.3-0.4 0.5-0.5 0.2 0 0.5 0 0.6 0.1 0.9 1.1 1.9 2 2.5 3.2 0.8 1.2 1.8 2 2.9 2.8z"/>
					<path id="&lt;Path&gt;" class="s9" d="m554.4 540c0 0.1 0 0.3-0.1 0.4-0.2 0.1-0.4 0.3-0.6 0.4-2.1 0.3-4.1-1.6-3.7-3.8 0-0.2 0.3-0.3 0.5-0.4 0 0 0.2 0 0.3 0 0.1 0.1 0.2 0.1 0.3 0.2 0.8 1.3 1.9 2.2 3.2 2.9 0.1 0.1 0.1 0.2 0.1 0.3z"/>
					<path id="&lt;Path&gt;" class="s9" d="m550.1 532.7c-0.1 0.2-0.2 0.5-0.4 0.5-0.3 0.2-0.7 0.3-1 0.2-1.2-0.2-2-0.9-2.5-2-0.1-0.2-0.1-0.5 0-0.7 0.1-0.2 0.4-0.4 0.5-0.3q1.5 0.6 3 1.3c0.3 0.2 0.4 0.6 0.4 1z"/>
					<path id="&lt;Path&gt;" class="s9" d="m544.9 539.6c0.2-0.7-0.7-0.9-0.7-1.5q0-0.1 0-0.3c0.1-0.1 0.2-0.3 0.2-0.2q0.8 0.3 1.6 0.8c0.2 0.1 0 0.7-0.3 0.8q-0.4 0.2-0.9 0.3c0 0 0.1 0.1 0.1 0.1z"/>
					<path id="&lt;Path&gt;" class="s9" d="m442.4 482c0.2 0.1 0.5 0.4 0.6 0.3 0.8-0.3 1.4-0.9 1.7-1.8 0.2-0.6 0.4-1.2 1-1.5 0.1-0.1 0.2-0.1 0.3 0 0.4 0.4 0.3 2.2-0.2 2.8-0.2 0.2-0.4 0.2-0.6 0.4q-0.5 0.5-1 1.1c-0.9 1.1-0.5 2.7-1.3 3.8-0.9 1.1-1.5 2.3-1.7 3.6-0.1 0.6-0.2 1.3-0.2 1.9-0.6-0.3-0.2 0.4-0.4 0-1.1-1.5-1-3-0.3-4.5 0.3-0.6 0.7-1.1 1.1-1.5 0.5-0.6 0.8-1.2 0.9-2 0.1-0.7 0.5-1.4 0.6-2.2 0.1-0.1-0.2-0.3-0.4-0.5z"/>
					<path id="&lt;Path&gt;" class="s9" d="m440.4 497.4c-0.4 0.4-1 0.5-1.4 0.2-1.4-0.9-2-2.7-1.5-4.5 0-0.1 0.2-0.2 0.3-0.2q0.4-0.2 0.6 0.2c0.2 0.8 0.5 1.7 0.8 2.4 0.3 0.7 0.8 1.3 1.2 1.9z"/>
					<path id="&lt;Path&gt;" class="s9" d="m442.5 481.9q-0.7 0.1-1.4 0.1c-0.5 0-0.8-0.3-0.9-0.6-0.2-0.8 0-1.5 0.6-2 0.2-0.3 0.5-0.5 1-0.3 0.4 0.1 0.6 0.4 0.6 0.7 0.1 0.8 0 1.5 0 2.2 0 0 0.1-0.1 0.1-0.1z"/>
					<path id="&lt;Path&gt;" class="s9" d="m444.4 492.3c-0.1-0.1-0.2-0.2-0.3-0.3-0.3-0.6-0.3-1.1 0.2-1.6 0.2-0.1 0.5-0.2 0.7-0.3 0.2 0 0.5 0.5 0.5 0.9-0.1 0.5-0.3 0.9-0.8 1.2-0.1 0-0.2 0-0.3 0.1z"/>
					<path id="&lt;Path&gt;" class="s9" d="m447.7 477.3c0-0.5 0.5-1.1 0.8-0.9 0.3 0.2 0.6 0.5 0.6 0.8 0 0.2-0.2 0.6-0.4 0.8-0.3 0.2-1-0.3-1-0.7z"/>
					<path id="&lt;Path&gt;" class="s9" d="m438.1 488.1c-0.1 0.2-0.1 0.4-0.3 0.5-0.1 0.1-0.4 0-0.5-0.1-0.3-0.2 0-0.8 0.3-0.8 0.1 0 0.3 0.2 0.5 0.4z"/>
					<path id="&lt;Path&gt;" class="s9" d="m447.5 485.6q-0.5 0-0.5-0.7c0-0.5 0.5-0.9 0.9-0.7 0.2 0.1 0.4 0.3 0.4 0.5 0.1 0.4-0.3 0.9-0.8 0.9z"/>
					<path id="&lt;Path&gt;" class="s9" d="m445.3 475.1c0 0.5-0.3 0.7-0.7 0.7-0.3-0.1-0.6-0.5-0.5-0.8 0.2-0.3 0.6-0.5 0.9-0.4 0.1 0.1 0.2 0.4 0.3 0.5z"/>
				</g>
			</g>
			<g id="&lt;Group&gt;">
				<text id="QUIT
Smoking
" style="transform: matrix(2,0,0,2,51.148,910.102)" >
				</text>
			</g>
		</g>
	</g>
</svg>